<svg xmlns="http://www.w3.org/2000/svg" viewBox="0 0 500 500"><g id="background-complete"><rect y="382.4" width="500" height="0.25" style="fill:#ebebeb"></rect><rect x="416.78" y="398.49" width="33.12" height="0.25" style="fill:#ebebeb"></rect><rect x="322.53" y="401.21" width="8.69" height="0.25" style="fill:#ebebeb"></rect><rect x="396.59" y="389.21" width="19.19" height="0.25" style="fill:#ebebeb"></rect><rect x="52.46" y="390.89" width="43.19" height="0.25" style="fill:#ebebeb"></rect><rect x="104.56" y="390.89" width="6.33" height="0.25" style="fill:#ebebeb"></rect><rect x="131.47" y="395.11" width="93.68" height="0.25" style="fill:#ebebeb"></rect><path d="M237,337.8H43.91a5.71,5.71,0,0,1-5.7-5.71V60.66A5.71,5.71,0,0,1,43.91,55H237a5.71,5.71,0,0,1,5.71,5.71V332.09A5.71,5.71,0,0,1,237,337.8ZM43.91,55.2a5.46,5.46,0,0,0-5.45,5.46V332.09a5.46,5.46,0,0,0,5.45,5.46H237a5.47,5.47,0,0,0,5.46-5.46V60.66A5.47,5.47,0,0,0,237,55.2Z" style="fill:#ebebeb"></path><path d="M453.31,337.8H260.21a5.72,5.72,0,0,1-5.71-5.71V60.66A5.72,5.72,0,0,1,260.21,55h193.1A5.71,5.71,0,0,1,459,60.66V332.09A5.71,5.71,0,0,1,453.31,337.8ZM260.21,55.2a5.47,5.47,0,0,0-5.46,5.46V332.09a5.47,5.47,0,0,0,5.46,5.46h193.1a5.47,5.47,0,0,0,5.46-5.46V60.66a5.47,5.47,0,0,0-5.46-5.46Z" style="fill:#ebebeb"></path><path d="M165.67,228.63s20.19,4.4,28.81,0,5.4-68.56,14.21-69.89c20.27-3.05,16.82,82.16,8.2,100.11s-53,10.32-53,10.32Z" style="fill:#ebebeb"></path><path d="M175.72,240.53c4.14-.12,8.27-.47,12.38-1a58.15,58.15,0,0,0,12.15-2.73,16.68,16.68,0,0,0,2.84-1.41,3.22,3.22,0,0,0,1.24-1.14,8.27,8.27,0,0,0,.74-1.45,33,33,0,0,0,1.59-6.08c.73-4.1,1.16-8.22,1.52-12.35.63-8.26,1-16.54,1.09-24.81s.11-16.55-.14-24.82l-.25,12.4q-.12,6.21-.33,12.4c-.29,8.26-.61,16.52-1.31,24.75-.33,4.11-.73,8.23-1.43,12.28a31.68,31.68,0,0,1-1.49,5.92,7.65,7.65,0,0,1-.66,1.31,2.59,2.59,0,0,1-1,.94,15.8,15.8,0,0,1-2.68,1.39A57.52,57.52,0,0,1,188,239.08C184,239.76,179.84,240.19,175.72,240.53Z" style="fill:#e0e0e0"></path><path d="M215.15,172.5,214.54,187l-.66,14.5c-.48,9.67-1,19.34-1.74,29-.36,4.82-.79,9.64-1.44,14.42a41.82,41.82,0,0,1-1.45,7,5.27,5.27,0,0,1-2,2.64,15.45,15.45,0,0,1-3.08,1.73,41.44,41.44,0,0,1-6.87,2.13c-2.34.54-4.72,1-7.11,1.31-4.78.73-9.61,1.17-14.44,1.45a140.86,140.86,0,0,0,14.5-1c2.4-.3,4.8-.68,7.18-1.19a42.33,42.33,0,0,0,7-2,16.93,16.93,0,0,0,3.27-1.76,7.48,7.48,0,0,0,1.4-1.3,5.76,5.76,0,0,0,.93-1.7,43.15,43.15,0,0,0,1.53-7.18c.69-4.81,1.14-9.64,1.53-14.47q1-14.49,1.52-29C214.92,191.87,215.14,182.19,215.15,172.5Z" style="fill:#e0e0e0"></path><path d="M172.54,339.23s29.9-222.21-5.8-224.77-44.31,75.8-30.52,221.94Z" style="fill:#f0f0f0"></path><path d="M138.7,191.17s-32.54,2.85-33.51,0-1-64.42-14.77-60.78-7.75,77.77,0,86.39,48.28,13.28,48.28,13.28S144.12,202.73,138.7,191.17Z" style="fill:#f0f0f0"></path><path d="M157.7,318.93q3.17-25.43,5.77-50.94c1.7-17,3.23-34,4.49-51.07s2.27-34.12,2.59-51.22c.15-8.55.14-17.11-.39-25.66a104.24,104.24,0,0,0-1.49-12.78,30.83,30.83,0,0,0-1.8-6.24,9.18,9.18,0,0,0-1.8-2.83,4.16,4.16,0,0,0-1.5-1,2.48,2.48,0,0,0-1.91.11,4.08,4.08,0,0,0-1.38,1.14,9.79,9.79,0,0,0-.94,1.4,22.77,22.77,0,0,0-1.32,3,54.8,54.8,0,0,0-1.75,6.22c-1,4.19-1.64,8.42-2.23,12.65-1.18,8.48-2,17-2.66,25.52-1.33,17.05-2.13,34.12-2.75,51.2s-1,34.17-1.24,51.26-.28,34.18-.18,51.27q.09-25.63.64-51.26c.31-17.09.75-34.17,1.41-51.24s1.52-34.14,2.9-51.17c.71-8.51,1.53-17,2.73-25.46.61-4.22,1.31-8.43,2.26-12.57a56.82,56.82,0,0,1,1.74-6.1,21,21,0,0,1,1.27-2.86,5.18,5.18,0,0,1,1.91-2.15,2,2,0,0,1,2.34.7,8.21,8.21,0,0,1,1.61,2.54,29.62,29.62,0,0,1,1.76,6,102.93,102.93,0,0,1,1.52,12.66c.55,8.51.59,17.05.47,25.59-.27,17.07-1.24,34.14-2.43,51.18S164.65,250.94,163,268,159.66,302,157.7,318.93Z" style="fill:#e0e0e0"></path><path d="M134.6,205.79c-4.21-.13-8.41-.3-12.61-.59s-8.38-.61-12.53-1.21a57,57,0,0,1-6.14-1.21,14.87,14.87,0,0,1-2.87-1.06,3.62,3.62,0,0,1-1.12-.84,1.16,1.16,0,0,1-.25-.51,3,3,0,0,1,0-.65c0-.54.11-1.1.09-1.63l0-1.59c0-1.07-.09-2.12-.13-3.17-.13-2.11-.27-4.21-.45-6.31q-1.16-12.59-2.78-25.11c-1.13-8.34-2.18-16.7-3.88-24.95.7,4.15,1.19,8.33,1.69,12.5s1,8.36,1.47,12.54c.93,8.36,1.86,16.72,2.56,25.1.2,2.09.35,4.19.49,6.28,0,1.05.14,2.1.16,3.14l0,1.56c0,.52-.06,1-.08,1.52l0,.4a1.8,1.8,0,0,0,0,.52,1.92,1.92,0,0,0,.44.89,4.26,4.26,0,0,0,1.38,1.05,15.93,15.93,0,0,0,3,1.1,46.34,46.34,0,0,0,6.25,1.14A191.83,191.83,0,0,0,134.6,205.79Z" style="fill:#e0e0e0"></path><path d="M134.6,220c-4.66-.82-9.32-1.63-14-2.52s-9.3-1.75-13.92-2.75c-2.31-.5-4.61-1-6.9-1.59-1.15-.29-2.29-.58-3.41-.93-.56-.16-1.13-.32-1.67-.53a12.8,12.8,0,0,1-1.61-.62l-.75-.37-.19-.1-.12-.1a1.43,1.43,0,0,1-.22-.26,6.66,6.66,0,0,1-.69-1.5,28.8,28.8,0,0,1-.85-3.38c-.44-2.3-.75-4.64-1-7-1.09-9.38-1.57-18.83-2-28.28q-.36-7.08-.61-14.18l-.51-14.19c-.07,9.47.08,18.94.39,28.4s.82,18.93,1.84,28.36c.29,2.36.61,4.71,1.08,7.06a29.33,29.33,0,0,0,.9,3.49,7.17,7.17,0,0,0,.81,1.71,2.57,2.57,0,0,0,.35.4,2,2,0,0,0,.23.18l.2.11.84.42a16.8,16.8,0,0,0,1.7.64c.57.21,1.14.37,1.71.53,1.15.35,2.3.64,3.45.92,2.31.57,4.63,1.05,7,1.51C115.86,217.27,125.22,218.75,134.6,220Z" style="fill:#e0e0e0"></path><polygon points="214.39 307.07 96.96 307.07 106.77 382.2 204.58 382.2 214.39 307.07" style="fill:#e0e0e0"></polygon><rect x="92" y="304.44" width="127.34" height="18.05" transform="translate(311.35 626.93) rotate(180)" style="fill:#e6e6e6"></rect><polygon points="328.41 98.85 378.44 151.59 370.79 160.48 323.47 109.81 328.41 98.85" style="fill:#e6e6e6"></polygon><path d="M368.36,151l-11.6,207.54h14.46l11.88-213.4S371.39,137.81,368.36,151Z" style="fill:#e6e6e6"></path><path d="M311.16,112.49l18.58-19.18s5.18,1.38,6.18,4.35l-12.38,20Z" style="fill:#ebebeb"></path><path d="M333.36,127.46c0-6.21-6.07-14.25-15.59-19.75-10-5.75-20.44-6.84-25.59-3.15h0L258.73,120.1l75.74,46.67Z" style="fill:#e6e6e6"></path><ellipse cx="292.15" cy="149.64" rx="25.23" ry="46.69" transform="translate(16.48 327.83) rotate(-60)" style="fill:#ebebeb"></ellipse><ellipse cx="291.37" cy="151" rx="23.18" ry="42.89" transform="translate(14.91 327.83) rotate(-60)" style="fill:#e0e0e0"></ellipse><circle cx="294.73" cy="146.4" r="15.47" transform="translate(-17.2 251.29) rotate(-45)" style="fill:#e6e6e6"></circle><path d="M437,371.48c-9-18.31-37.77-31.7-71.88-31.7s-62.86,13.39-71.87,31.7Z" style="fill:#f0f0f0"></path><rect x="293.21" y="371.48" width="143.75" height="8.9" style="fill:#e6e6e6"></rect></g><g id="background-simple"><path d="M163.18,99.12a90.42,90.42,0,0,1,11.47-2.5c10.95-1.65,28.18.25,33,12.28,2.31,5.69.61,12.13-1.11,18-6.42,22.09-15.78,44.89-17.19,68a97.32,97.32,0,0,0,24.45,70.15c22.48,25,78.28,12.61,70.64-27.31-1.71-8.95-9.13-15.46-15.48-22-19.95-20.5-36.2-54-20.13-81.51,24.63-42.17,87.43-27.08,121.77-7.91,56.07,31.29,62.21,101.19,40.19,155.92-23.59,58.65-77.11,104-139.95,115.92C208.63,410,136.94,389.63,98.77,337.06c-38.7-53.3-34.32-124.2-3.94-180.29C109.41,129.86,134,107.45,163.18,99.12Z" style="fill:#407BFF"></path><path d="M163.18,99.12a90.42,90.42,0,0,1,11.47-2.5c10.95-1.65,28.18.25,33,12.28,2.31,5.69.61,12.13-1.11,18-6.42,22.09-15.78,44.89-17.19,68a97.32,97.32,0,0,0,24.45,70.15c22.48,25,78.28,12.61,70.64-27.31-1.71-8.95-9.13-15.46-15.48-22-19.95-20.5-36.2-54-20.13-81.51,24.63-42.17,87.43-27.08,121.77-7.91,56.07,31.29,62.21,101.19,40.19,155.92-23.59,58.65-77.11,104-139.95,115.92C208.63,410,136.94,389.63,98.77,337.06c-38.7-53.3-34.32-124.2-3.94-180.29C109.41,129.86,134,107.45,163.18,99.12Z" style="fill:#fff;opacity:0.9"></path></g><g id="Shadow"><ellipse id="path" cx="250" cy="416.24" rx="193.89" ry="11.32" style="fill:#f5f5f5"></ellipse></g><g id="Confetti"><polygon points="302.85 140.17 298.88 145.33 306.81 148.9 302.85 140.17" style="fill:#407BFF"></polygon><polygon points="333.51 298.47 338.62 294.44 331.8 289.04 333.51 298.47" style="fill:#407BFF"></polygon><polygon points="220.91 117.94 220.53 111.45 212.19 113.95 220.91 117.94" style="fill:#407BFF"></polygon><polygon points="173.41 359.03 169.44 364.18 177.37 367.75 173.41 359.03" style="fill:#407BFF"></polygon><polygon points="257.52 200.46 263.87 200.85 263.07 207.99 255.54 206.01 257.52 200.46" style="fill:#407BFF"></polygon><polygon points="285.86 263.17 282.85 268.77 276.69 265.07 281.64 259.05 285.86 263.17" style="fill:#407BFF"></polygon><polygon points="246.73 299.93 253.08 300.33 252.29 307.47 244.75 305.49 246.73 299.93" style="fill:#407BFF"></polygon><path d="M324.82,217.18l4,.79s-6,4-3.18,7.14-2,5.95-2,5.95l-3.57-2.38s3.17-2.38,1.59-5.55S324.82,217.18,324.82,217.18Z" style="fill:#407BFF"></path><polygon points="388.72 279.57 385.07 284.96 393.21 288.04 388.72 279.57" style="fill:#407BFF"></polygon><polygon points="380.46 128.2 382.68 122.08 374.04 121.09 380.46 128.2" style="fill:#407BFF"></polygon><polygon points="352.7 166.24 353.87 159.99 360.86 161.64 357.98 168.88 352.7 166.24" style="fill:#407BFF"></polygon><path d="M401.27,190.9l-4,.45s4.46-5.59.85-7.77.09-6.27.09-6.27l4.12,1.18s-2.3,3.23.18,5.78S401.27,190.9,401.27,190.9Z" style="fill:#407BFF"></path><path d="M238.52,366.4l4,.79s-6,4-3.17,7.14-2,5.95-2,5.95l-3.57-2.38s3.18-2.38,1.59-5.55S238.52,366.4,238.52,366.4Z" style="fill:#407BFF"></path><polygon points="292.06 329.18 288.1 334.34 296.03 337.91 292.06 329.18" style="fill:#407BFF"></polygon><polygon points="343.81 339.73 350.16 340.12 349.37 347.26 341.83 345.28 343.81 339.73" style="fill:#407BFF"></polygon><path d="M368,346.5l4,.79s-5.95,4-3.17,7.14-2,5.95-2,5.95L363.21,358s3.17-2.38,1.58-5.55S368,346.5,368,346.5Z" style="fill:#407BFF"></path><path d="M273.75,140.42l-2.49.59s1.06-5.29-2-7.12-2-5.72-2-5.72l3.1.9a6.31,6.31,0,0,0,2.05,5.25C274.81,136.53,273.75,140.42,273.75,140.42Z" style="fill:#407BFF"></path><path d="M230.56,249.38l-3.75,1.52s2.79-6.59-1.27-7.71-1.62-6.06-1.62-6.06l4.29,0s-1.34,3.73,1.73,5.51S230.56,249.38,230.56,249.38Z" style="fill:#407BFF"></path><path d="M208.74,214.17a3,3,0,1,1-3-3A3,3,0,0,1,208.74,214.17Z" style="fill:#407BFF"></path><path d="M316.61,94.8a3,3,0,1,1-3-3A3,3,0,0,1,316.61,94.8Z" style="fill:#407BFF"></path><polygon points="185.29 149.86 180.56 154.33 187.83 159.11 185.29 149.86" style="fill:#407BFF"></polygon><polygon points="163.65 277.88 166.81 272.19 158.43 269.84 163.65 277.88" style="fill:#407BFF"></polygon><polygon points="106 320.34 104.34 326.63 113.03 326.86 106 320.34" style="fill:#407BFF"></polygon><polygon points="123.33 251.88 122.72 258.21 115.61 257.18 117.85 249.71 123.33 251.88" style="fill:#407BFF"></polygon><path d="M149.87,227.84l4-.81s-4,6-.17,7.82.47,6.25.47,6.25l-4.21-.82s2-3.42-.68-5.73S149.87,227.84,149.87,227.84Z" style="fill:#407BFF"></path><polygon points="98.51 198.45 102.01 192.96 93.79 190.1 98.51 198.45" style="fill:#407BFF"></polygon><polygon points="143.48 177.81 137.12 177.97 137.28 170.79 144.97 172.1 143.48 177.81" style="fill:#407BFF"></polygon><path d="M130.4,111.71l-4-.44s5.58-4.47,2.54-7.39,1.45-6.1,1.45-6.1l3.76,2s-2.95,2.65-1.09,5.68S130.4,111.71,130.4,111.71Z" style="fill:#407BFF"></path><path d="M192,313.91a3,3,0,1,1,3.22,2.7A3,3,0,0,1,192,313.91Z" style="fill:#407BFF"></path><g style="opacity:0.7000000000000001;isolation:isolate"><polygon points="302.85 140.17 298.88 145.33 306.81 148.9 302.85 140.17" style="fill:#fff"></polygon><polygon points="333.51 298.47 338.62 294.44 331.8 289.04 333.51 298.47" style="fill:#fff"></polygon><polygon points="220.91 117.94 220.53 111.45 212.19 113.95 220.91 117.94" style="fill:#fff"></polygon><polygon points="173.41 359.03 169.44 364.18 177.37 367.75 173.41 359.03" style="fill:#fff"></polygon><polygon points="257.52 200.46 263.87 200.85 263.07 207.99 255.54 206.01 257.52 200.46" style="fill:#fff"></polygon><polygon points="285.86 263.17 282.85 268.77 276.69 265.07 281.64 259.05 285.86 263.17" style="fill:#fff"></polygon><polygon points="246.73 299.93 253.08 300.33 252.29 307.47 244.75 305.49 246.73 299.93" style="fill:#fff"></polygon><path d="M324.82,217.18l4,.79s-6,4-3.18,7.14-2,5.95-2,5.95l-3.57-2.38s3.17-2.38,1.59-5.55S324.82,217.18,324.82,217.18Z" style="fill:#fff"></path><polygon points="388.72 279.57 385.07 284.96 393.21 288.04 388.72 279.57" style="fill:#fff"></polygon><polygon points="380.46 128.2 382.68 122.08 374.04 121.09 380.46 128.2" style="fill:#fff"></polygon><polygon points="352.7 166.24 353.87 159.99 360.86 161.64 357.98 168.88 352.7 166.24" style="fill:#fff"></polygon><path d="M401.27,190.9l-4,.45s4.46-5.59.85-7.77.09-6.27.09-6.27l4.12,1.18s-2.3,3.23.18,5.78S401.27,190.9,401.27,190.9Z" style="fill:#fff"></path><path d="M238.52,366.4l4,.79s-6,4-3.17,7.14-2,5.95-2,5.95l-3.57-2.38s3.18-2.38,1.59-5.55S238.52,366.4,238.52,366.4Z" style="fill:#fff"></path><polygon points="292.06 329.18 288.1 334.34 296.03 337.91 292.06 329.18" style="fill:#fff"></polygon><polygon points="343.81 339.73 350.16 340.12 349.37 347.26 341.83 345.28 343.81 339.73" style="fill:#fff"></polygon><path d="M368,346.5l4,.79s-5.95,4-3.17,7.14-2,5.95-2,5.95L363.21,358s3.17-2.38,1.58-5.55S368,346.5,368,346.5Z" style="fill:#fff"></path><path d="M273.75,140.42l-2.49.59s1.06-5.29-2-7.12-2-5.72-2-5.72l3.1.9a6.31,6.31,0,0,0,2.05,5.25C274.81,136.53,273.75,140.42,273.75,140.42Z" style="fill:#fff"></path><path d="M230.56,249.38l-3.75,1.52s2.79-6.59-1.27-7.71-1.62-6.06-1.62-6.06l4.29,0s-1.34,3.73,1.73,5.51S230.56,249.38,230.56,249.38Z" style="fill:#fff"></path><path d="M208.74,214.17a3,3,0,1,1-3-3A3,3,0,0,1,208.74,214.17Z" style="fill:#fff"></path><path d="M316.61,94.8a3,3,0,1,1-3-3A3,3,0,0,1,316.61,94.8Z" style="fill:#fff"></path><polygon points="185.29 149.86 180.56 154.33 187.83 159.11 185.29 149.86" style="fill:#fff"></polygon><polygon points="163.65 277.88 166.81 272.19 158.43 269.84 163.65 277.88" style="fill:#fff"></polygon><polygon points="106 320.34 104.34 326.63 113.03 326.86 106 320.34" style="fill:#fff"></polygon><polygon points="123.33 251.88 122.72 258.21 115.61 257.18 117.85 249.71 123.33 251.88" style="fill:#fff"></polygon><path d="M149.87,227.84l4-.81s-4,6-.17,7.82.47,6.25.47,6.25l-4.21-.82s2-3.42-.68-5.73S149.87,227.84,149.87,227.84Z" style="fill:#fff"></path><polygon points="98.51 198.45 102.01 192.96 93.79 190.1 98.51 198.45" style="fill:#fff"></polygon><polygon points="143.48 177.81 137.12 177.97 137.28 170.79 144.97 172.1 143.48 177.81" style="fill:#fff"></polygon><path d="M130.4,111.71l-4-.44s5.58-4.47,2.54-7.39,1.45-6.1,1.45-6.1l3.76,2s-2.95,2.65-1.09,5.68S130.4,111.71,130.4,111.71Z" style="fill:#fff"></path><path d="M192,313.91a3,3,0,1,1,3.22,2.7A3,3,0,0,1,192,313.91Z" style="fill:#fff"></path></g></g><g id="Diploma"><polygon points="318.67 416.21 72.29 416.21 63.77 258.4 310.15 258.4 318.67 416.21" style="fill:#407BFF"></polygon><g style="opacity:0.6000000000000001;isolation:isolate"><polygon points="318.67 416.21 72.29 416.21 63.77 258.4 310.15 258.4 318.67 416.21" style="fill:#fff"></polygon></g><g style="opacity:0.2"><path d="M294,408.38H95.9l-.06-1.53a15.84,15.84,0,0,0-15.6-14.8H78.83l-5.9-109.18h1.52A13.77,13.77,0,0,0,88.36,268.2l-.18-2H286.41l0,1.68v.2A15.82,15.82,0,0,0,302,282.87l1.59,0,5.9,109.26-1.67,0a13.79,13.79,0,0,0-13.94,14.66Zm-196.23-2H291.9a15.76,15.76,0,0,1,15.52-16.32l-5.68-105.2a17.84,17.84,0,0,1-17.3-16.64H90.36A15.76,15.76,0,0,1,75,284.86l5.68,105.2A17.86,17.86,0,0,1,97.81,406.38Z" style="fill:#fff"></path></g><path d="M101.17,402.38A22.08,22.08,0,0,0,84.53,386.5l-5.29-98.19a19.73,19.73,0,0,0,14.89-16.09H281a22.08,22.08,0,0,0,16.92,16.24l5.29,98.11a19.73,19.73,0,0,0-15,15.81Z" style="fill:#fff;opacity:0.2"></path><g style="opacity:0.6000000000000001"><path d="M123.44,297.52a4.24,4.24,0,0,1,4.49-4.56,4.66,4.66,0,0,1,3.47,1.39l-.79.8a3.52,3.52,0,0,0-2.57-1,3.15,3.15,0,0,0-3.32,3.42,3.59,3.59,0,0,0,3.69,3.43,3.18,3.18,0,0,0,2.46-1.07l.87.8a4.19,4.19,0,0,1-3.33,1.4A4.81,4.81,0,0,1,123.44,297.52Z"></path><path d="M132.47,297.52A4.26,4.26,0,0,1,137,293a4.82,4.82,0,0,1,5,4.56,4.24,4.24,0,0,1-4.49,4.56A4.85,4.85,0,0,1,132.47,297.52Zm8.22,0a3.56,3.56,0,0,0-3.64-3.42,3.15,3.15,0,0,0-3.3,3.42,3.58,3.58,0,0,0,3.67,3.43A3.14,3.14,0,0,0,140.69,297.52Z"></path><path d="M151.36,293.06l.48,8.92h-1l-5.72-6.65.35,6.65h-1.27l-.48-8.92h1l5.72,6.65-.35-6.65Z"></path><path d="M160.47,297.47h1.22l.19,3.48a5,5,0,0,1-3.32,1.13,4.82,4.82,0,0,1-5-4.56,4.26,4.26,0,0,1,4.54-4.56,4.72,4.72,0,0,1,3.51,1.38l-.75.79a3.71,3.71,0,0,0-2.65-1,3.16,3.16,0,0,0-3.37,3.42,3.61,3.61,0,0,0,3.73,3.43,3.68,3.68,0,0,0,2.06-.57Z"></path><path d="M170.34,302l-2.07-2.74c-.18,0-.37,0-.56,0H165.5l.14,2.71h-1.27l-.48-8.92h3.48c2.32,0,3.79,1.18,3.9,3.11a2.65,2.65,0,0,1-1.82,2.82l2.28,3Zm-.35-5.81c-.07-1.27-1-2-2.6-2h-2.17l.22,4h2.17C169.24,298.18,170.06,297.45,170,296.17Z"></path><path d="M179.22,299.75h-4.75L173.6,302h-1.31l3.56-8.92h1.27l4.54,8.92h-1.34Zm-.51-1-2.16-4.37-1.69,4.37Z"></path><path d="M183.89,294.17h-3.07l-.06-1.11h7.4l.06,1.11h-3.07l.42,7.81h-1.26Z"></path><path d="M189.57,298.13l-.27-5.07h1.28l.27,5c.11,2,1.06,2.87,2.67,2.87s2.48-.89,2.37-2.87l-.27-5h1.24l.27,5.07c.14,2.59-1.2,3.95-3.56,3.95S189.71,300.72,189.57,298.13Z"></path><path d="M199.47,293.06h1.28l.42,7.81H206l.06,1.11H200Z"></path><path d="M213.14,299.75h-4.75l-.86,2.23h-1.32l3.57-8.92H211l4.54,8.92h-1.34Zm-.5-1-2.16-4.37-1.7,4.37Z"></path><path d="M217.81,294.17h-3.06l-.06-1.11h7.39l.06,1.11h-3.06l.42,7.81h-1.27Z"></path><path d="M223.47,293.06h1.27l.49,8.92H224Z"></path><path d="M226.94,297.52a4.26,4.26,0,0,1,4.51-4.56,4.82,4.82,0,0,1,5,4.56,4.24,4.24,0,0,1-4.49,4.56A4.84,4.84,0,0,1,226.94,297.52Zm8.22,0a3.58,3.58,0,0,0-3.65-3.42,3.15,3.15,0,0,0-3.3,3.42,3.59,3.59,0,0,0,3.67,3.43A3.15,3.15,0,0,0,235.16,297.52Z"></path><path d="M245.83,293.06l.48,8.92h-1.05l-5.72-6.65.36,6.65h-1.28l-.48-8.92h1.05l5.72,6.65-.36-6.65Z"></path><path d="M248.11,301l.42-1a4.8,4.8,0,0,0,3,1c1.55,0,2.18-.6,2.14-1.38-.12-2.17-5.46-.8-5.64-4.11-.07-1.38.94-2.55,3.29-2.55a5.48,5.48,0,0,1,2.91.79l-.37,1a4.76,4.76,0,0,0-2.49-.73c-1.51,0-2.13.64-2.09,1.42.12,2.18,5.46.81,5.63,4.09.08,1.36-1,2.53-3.32,2.53A5.59,5.59,0,0,1,248.11,301Z"></path></g><g style="opacity:0.4"><path d="M268.25,313H111.58a.74.74,0,0,1-.74-.7.66.66,0,0,1,.66-.7H268.17a.75.75,0,0,1,.74.7A.66.66,0,0,1,268.25,313Z"></path></g><g style="opacity:0.4"><path d="M273.24,319.27h-166a.74.74,0,0,1-.73-.7.64.64,0,0,1,.66-.69h166a.74.74,0,0,1,.74.69A.66.66,0,0,1,273.24,319.27Z"></path></g><g style="opacity:0.4"><path d="M259.61,325.52h-138a.74.74,0,0,1-.74-.69.66.66,0,0,1,.66-.7H259.54a.76.76,0,0,1,.74.7A.66.66,0,0,1,259.61,325.52Z"></path></g><g style="opacity:0.5"><path d="M227.81,339.67H154.89a.74.74,0,0,1-.73-.7.65.65,0,0,1,.66-.69h72.91a.74.74,0,0,1,.74.69A.66.66,0,0,1,227.81,339.67Z"></path></g><g style="opacity:0.5"><path d="M214.21,346.29h-45a.74.74,0,0,1-.74-.69.66.66,0,0,1,.66-.7h45a.74.74,0,0,1,.74.7A.65.65,0,0,1,214.21,346.29Z"></path></g><g style="opacity:0.4"><path d="M275.51,361.41h-166a.74.74,0,0,1-.73-.7.66.66,0,0,1,.66-.7h166a.75.75,0,0,1,.73.7A.65.65,0,0,1,275.51,361.41Z"></path></g><g style="opacity:0.4"><path d="M261.89,367.66H123.83a.74.74,0,0,1-.73-.7.65.65,0,0,1,.66-.69H261.81a.74.74,0,0,1,.74.69A.66.66,0,0,1,261.89,367.66Z"></path></g><g style="opacity:0.5"><path d="M146.14,397.42a.62.62,0,0,1-.32-.09,3.61,3.61,0,0,1-1.77-5.22c3.18-6.89,21.82-16.59,28.4-13.4,2.43,1.18,3.51,3.51,3.09,6.62l1.19-.55c2-.86,6.92-2.63,9-.53a6.92,6.92,0,0,1,1.64,4.58,11.1,11.1,0,0,1,2.29-1.37c1.65-.73,3.89-1.2,5.2-.3a3.57,3.57,0,0,1,1.25,2.68C200,387.59,208,387,208.15,387c.85,0,1.15.34,1.25.66a.78.78,0,0,1-.11.78c4.39-.64,14-1.44,34.64-1.44a.74.74,0,0,1,.74.7.66.66,0,0,1-.66.7c-32.65,0-37.33,1.95-37.55,2.06a.75.75,0,0,1-1-.3.68.68,0,0,1,.22-.93h0c.43-.24.86-.49,1.24-.73-3.27.32-9,1.41-10.9,3a7.73,7.73,0,0,1-.41,2.07c-.29.69-.77.64-1,.6-.71-.19-.7-1.05-.68-1.67a2.42,2.42,0,0,1,.69-1.61c0-1.09-.09-2.24-.63-2.6s-2-.35-3.83.44a8.8,8.8,0,0,0-3,2.13,8.93,8.93,0,0,1-.8,3.1.79.79,0,0,1-1,.38c-.67-.25-.6-1.09-.56-1.64a4.73,4.73,0,0,1,.94-2.4c.16-1.77,0-3.92-1.17-5.12-.94-1-3.91-.61-7.39.88-.76.32-1.49.68-2.19,1.05-1.19,4.1-4.75,9.22-6.94,8.93-.35-.05-1.19-.3-1.33-1.68-.28-2.76,3-5.94,7.06-8.21.53-2.16.57-4.93-2.05-6.21-6-2.91-23.67,6.52-26.56,12.79-.73,1.58-.4,2.61,1.07,3.36a.72.72,0,0,1,.34.94A.65.65,0,0,1,146.14,397.42Zm27.13-9.18c-3.11,2-5.16,4.41-5,6.07a.84.84,0,0,0,.1.39C169.1,394.77,171.78,391.9,173.27,388.24Z"></path></g></g><g id="Character"><polygon points="246.78 414.49 269.08 176.05 439.19 176.05 416.89 414.49 246.78 414.49" style="fill:#407BFF"></polygon><polygon points="246.78 414.49 269.08 176.05 439.19 176.05 416.89 414.49 246.78 414.49" style="opacity:0.2;isolation:isolate"></polygon><polygon points="435.29 176.05 413.01 414.49 242.89 414.49 249.96 338.94 251.46 322.78 254.13 294.32 264.89 179.27 265.19 176.05 435.29 176.05" style="fill:#407BFF"></polygon><polygon points="344.38 176.05 254.13 294.32 264.89 179.27 267.34 176.05 344.38 176.05" style="fill:#fff;opacity:0.2;isolation:isolate"></polygon><polygon points="374.25 176.05 249.96 338.94 251.46 322.78 363.43 176.05 374.25 176.05" style="fill:#fff;opacity:0.2;isolation:isolate"></polygon><path d="M406.31,195.51a11.1,11.1,0,0,0-5.06-10.63l.3-3.28H290.9l-.31,3.28a13.88,13.88,0,0,0-7.06,10.63,11.13,11.13,0,0,0,5.07,10.63l-.31,3.28H398.94l.31-3.28A13.84,13.84,0,0,0,406.31,195.51Z" style="fill:#407BFF"></path><path d="M406.31,195.51a11.1,11.1,0,0,0-5.06-10.63l.3-3.28H290.9l-.31,3.28a13.88,13.88,0,0,0-7.06,10.63,11.13,11.13,0,0,0,5.07,10.63l-.31,3.28H398.94l.31-3.28A13.84,13.84,0,0,0,406.31,195.51Z" style="fill:#fff;opacity:0.4;isolation:isolate"></path><path d="M404.57,195.51a13.86,13.86,0,0,1-7.06,10.63l-.31,3.28H288.29l.31-3.28c-.17-.11-.34-.22-.5-.34a11.13,11.13,0,0,1-4.57-10.29,13.85,13.85,0,0,1,7.07-10.63l.3-3.28H399.81l-.3,3.28A11.12,11.12,0,0,1,404.57,195.51Z" style="fill:#fff;opacity:0.4;isolation:isolate"></path><polygon points="365.23 392.43 363.94 406.14 288.1 406.14 289.39 392.43 365.23 392.43" style="fill:#263238"></polygon><g style="opacity:0.4"><path d="M342,397.71h-29.3a.65.65,0,0,1-.65-.65.66.66,0,0,1,.65-.66H342a.66.66,0,0,1,.65.66A.65.65,0,0,1,342,397.71Z" style="fill:#fff"></path><path d="M354.61,402.08h-56.3a.66.66,0,0,1-.65-.66.65.65,0,0,1,.65-.65h56.3a.66.66,0,0,1,.66.65A.67.67,0,0,1,354.61,402.08Z" style="fill:#fff"></path></g><path d="M321.14,193.46l-.09.91h-5.3l.68-7.33h5.17l-.09.91h-4.12l-.21,2.25h3.67l-.08.89H317.1l-.22,2.37Z" style="fill:#263238"></path><path d="M329.53,194.37,330,189,327,193.48h-.48l-2.23-4.42-.5,5.31h-1l.69-7.33h.85l2.57,5.15,3.49-5.15h.86l-.68,7.33Z" style="fill:#263238"></path><path d="M339.09,189.59c-.15,1.6-1.39,2.56-3.3,2.56H334l-.21,2.22h-1l.69-7.33h2.85C338.18,187,339.24,188,339.09,189.59Zm-1,0c.1-1-.55-1.64-1.88-1.64h-1.78l-.31,3.29h1.78C337.19,191.24,337.94,190.64,338,189.59Z" style="fill:#263238"></path><path d="M340.87,187h1l-.6,6.42h4l-.09.91h-5Z" style="fill:#263238"></path><path d="M346,190.7a4.17,4.17,0,0,1,4.25-3.75,3.33,3.33,0,0,1,3.52,3.75,4.16,4.16,0,0,1-4.23,3.76A3.34,3.34,0,0,1,346,190.7Zm6.73,0a2.46,2.46,0,0,0-2.57-2.81A3.09,3.09,0,0,0,347,190.7a2.47,2.47,0,0,0,2.59,2.82A3.08,3.08,0,0,0,352.73,190.7Z" style="fill:#263238"></path><path d="M357.76,191.84l-.24,2.53h-1l.24-2.55L354.27,187h1.12l2,3.86,2.72-3.86h1Z" style="fill:#263238"></path><path d="M366.75,193.46l-.09.91h-5.3l.69-7.33h5.16l-.09.91H363l-.21,2.25h3.67l-.08.89h-3.67l-.22,2.37Z" style="fill:#263238"></path><path d="M373.75,193.46l-.08.91h-5.31l.69-7.33h5.16l-.08.91H370l-.21,2.25h3.67l-.09.89h-3.67l-.22,2.37Z" style="fill:#263238"></path><path d="M302.13,200.31a4.17,4.17,0,0,1,4.24-3.75,3.33,3.33,0,0,1,3.53,3.75,4.15,4.15,0,0,1-4.23,3.75A3.33,3.33,0,0,1,302.13,200.31Zm6.72,0a2.46,2.46,0,0,0-2.56-2.82,3.09,3.09,0,0,0-3.12,2.82,2.47,2.47,0,0,0,2.59,2.82A3.07,3.07,0,0,0,308.85,200.31Z" style="fill:#263238"></path><path d="M312.81,197.56l-.24,2.55h3.66l-.08.9h-3.67l-.28,3h-1l.69-7.33H317l-.09.91Z" style="fill:#263238"></path><path d="M322.66,197.56h-2.5l.08-.91h6.05l-.08.91H323.7l-.6,6.42h-1Z" style="fill:#263238"></path><path d="M333.72,196.65,333,204H332l.31-3.27h-4.2l-.31,3.27h-1l.68-7.33h1.05l-.3,3.15h4.2l.3-3.15Z" style="fill:#263238"></path><path d="M340.63,203.07l-.09.91h-5.31l.69-7.33h5.16l-.08.91h-4.12l-.21,2.25h3.67l-.09.89h-3.66l-.23,2.37Z" style="fill:#263238"></path><path d="M351.83,204l.49-5.34-3.06,4.45h-.48l-2.23-4.42-.5,5.31h-1l.69-7.33h.86l2.56,5.15,3.5-5.15h.85l-.67,7.33Z" style="fill:#263238"></path><path d="M354.78,200.31a4.18,4.18,0,0,1,4.25-3.75,3.33,3.33,0,0,1,3.53,3.75,4.16,4.16,0,0,1-4.23,3.75A3.34,3.34,0,0,1,354.78,200.31Zm6.73,0a2.47,2.47,0,0,0-2.57-2.82,3.08,3.08,0,0,0-3.11,2.82,2.47,2.47,0,0,0,2.59,2.82A3.07,3.07,0,0,0,361.51,200.31Z" style="fill:#263238"></path><path d="M370.79,196.65l-.68,7.33h-.86l-3.88-5.47-.51,5.47h-1l.68-7.33h.86l3.88,5.46.51-5.46Z" style="fill:#263238"></path><path d="M374.36,197.56h-2.51l.09-.91H378l-.09.91h-2.51l-.6,6.42h-1Z" style="fill:#263238"></path><path d="M385.42,196.65l-.69,7.33h-1l.3-3.27h-4.2l-.3,3.27h-1.05l.69-7.33h1l-.29,3.15h4.2l.29-3.15Z" style="fill:#263238"></path><path d="M399.7,196.57a5.41,5.41,0,0,0,.18-.72c.26-1.71-.52-3.24-1.74-3.43a2.15,2.15,0,0,0-2,1.07Z" style="opacity:0.2;isolation:isolate"></path><path d="M395.7,194.29a5,5,0,0,0-.24.88c-.26,1.71.52,3.24,1.74,3.43a2.2,2.2,0,0,0,2.11-1.21Z" style="opacity:0.2;isolation:isolate"></path><path d="M288.55,194.29a4.24,4.24,0,0,0-.25.88c-.26,1.71.52,3.24,1.74,3.43a2.2,2.2,0,0,0,2.11-1.21Z" style="opacity:0.2;isolation:isolate"></path><path d="M292.54,196.57a4.21,4.21,0,0,0,.18-.72c.26-1.71-.51-3.24-1.73-3.43a2.16,2.16,0,0,0-2,1.07Z" style="opacity:0.2;isolation:isolate"></path><path d="M329.74,181.6l-21.23,27.82H288.29l.31-3.28c-.17-.11-.34-.22-.5-.34l18.46-24.2Z" style="fill:#fff;opacity:0.2;isolation:isolate"></path><polygon points="338.72 181.6 317.49 209.42 314.24 209.42 335.46 181.6 338.72 181.6" style="fill:#fff;opacity:0.2;isolation:isolate"></polygon><polygon points="365.23 392.43 363.94 406.14 343.27 406.14 353.73 392.43 365.23 392.43" style="fill:#fff;opacity:0.2;isolation:isolate"></polygon><polygon points="348 392.43 337.54 406.14 334.29 406.14 344.75 392.43 348 392.43" style="fill:#fff;opacity:0.2;isolation:isolate"></polygon><polygon points="288.98 210.36 293.21 209.42 288.98 208.48 288.04 204.25 287.1 208.48 282.87 209.42 287.1 210.36 288.04 214.59 288.98 210.36" style="fill:#fff"></polygon><polygon points="400.25 182.81 404.48 181.87 400.25 180.93 399.31 176.69 398.37 180.93 394.14 181.87 398.37 182.81 399.31 187.04 400.25 182.81" style="fill:#fff"></polygon><polygon points="386.48 206.5 388.81 205.99 386.48 205.47 385.96 203.13 385.44 205.47 383.1 205.99 385.44 206.5 385.96 208.84 386.48 206.5" style="fill:#fff"></polygon><polygon points="288.56 406.67 290.89 406.15 288.56 405.63 288.04 403.29 287.52 405.63 285.18 406.15 287.52 406.67 288.04 409 288.56 406.67" style="fill:#fff"></polygon><polygon points="350.4 394.45 352.74 393.93 350.4 393.41 349.89 391.07 349.37 393.41 347.03 393.93 349.37 394.45 349.89 396.78 350.4 394.45" style="fill:#fff"></polygon><polygon points="405.5 382.54 420.92 219.41 269.02 219.41 253.6 382.54 405.5 382.54" style="opacity:0.2;isolation:isolate"></polygon><polygon points="405.5 382.54 420.92 219.41 272.91 219.41 257.49 382.54 405.5 382.54" style="fill:#263238"></polygon><polygon points="405.5 382.54 420.92 219.41 272.91 219.41 257.49 382.54 405.5 382.54" style="fill:#fff;opacity:0.5;isolation:isolate"></polygon><polygon points="420.92 223.06 406.28 377.86 262.37 377.86 277 223.06 420.92 223.06" style="fill:#407BFF"></polygon><polygon points="420.92 223.06 406.28 377.86 262.37 377.86 277 223.06 420.92 223.06" style="fill:#fff;opacity:0.7000000000000001;isolation:isolate"></polygon><g id="group"><path d="M297.64,346.61l4.1,6.78s3.87-.43,5.11,0,.86,15.88-.2,16.85-4.29-1.42-5.9-2.58-1.74-7.25-1.74-7.25l-5.84-9.32Z" style="fill:#ebb376"></path><path d="M286.63,322.64c0,2.4,14.64,28.38,14.64,28.38l-7.38,5s-19.5-27.9-19.5-34.06,30.84-37.29,38.54-36.94l2.14,15.72s-.55.37-1.49,1c-2.55,1.76-8,5.55-13.31,9.44C293.36,316.26,286.63,321.48,286.63,322.64Z" style="fill:#fff"></path><path d="M313.58,301.78c-2.55,1.76-8,5.55-13.31,9.44-.15-8.32,9.81-14.82,9.81-14.82A8.35,8.35,0,0,1,313.58,301.78Z" style="opacity:0.1;isolation:isolate"></path><path d="M364.06,377.86h-3a8.78,8.78,0,0,1-1.43.77c-.15.07-.46-.23-.86-.77H305.62c.36-2.49.71-4.79,1.05-6.86.07-.38.13-.77.19-1.15v0c.16-.94.31-1.84.45-2.68a.57.57,0,0,0,0-.13c.13-.72.26-1.39.38-2h0c0-.22.08-.44.11-.66H363.9c0,.23,0,.45,0,.67,0,1.79.07,5.49.13,10.53v0C364,376.28,364.05,377.06,364.06,377.86Z" style="fill:#263238"></path><path d="M364.06,377.86h-3a8.78,8.78,0,0,1-1.43.77c-.15.07-.46-.23-.86-.77H305.62c.36-2.49.71-4.79,1.05-6.86.07-.38.13-.77.19-1.15v0c.16-.94.31-1.84.45-2.68a.57.57,0,0,0,0-.13c.13-.72.26-1.39.38-2h0c0-.22.08-.44.11-.66H363.9c0,.23,0,.45,0,.67,0,1.79.07,5.49.13,10.53v0C364,376.28,364.05,377.06,364.06,377.86Z" style="fill:#fff;opacity:0.2;isolation:isolate"></path><polygon points="307.34 364.98 363.8 364.98 363.8 371.7 306.62 371 307.34 364.98" style="fill:#263238"></polygon><rect x="343.64" y="361.95" width="2.02" height="11.93" style="fill:#263238"></rect><rect x="315.07" y="361.95" width="2.02" height="11.93" style="fill:#263238"></rect><rect x="322.63" y="363.8" width="10.44" height="7.52" style="fill:#407BFF"></rect><rect x="343.64" y="361.95" width="2.02" height="11.93" style="fill:#fff;opacity:0.2;isolation:isolate"></rect><rect x="315.07" y="361.95" width="2.02" height="11.93" style="fill:#fff;opacity:0.2;isolation:isolate"></rect><rect x="322.63" y="363.8" width="10.44" height="7.52" style="fill:#fff;opacity:0.4;isolation:isolate"></rect><path d="M375.19,289.14s-1.8,7.43-4,18.13c-.64,3.16-1.31,6.6-2,10.21-2.84,15.38-5.57,34-5.35,47.5H307.34s-3.67-51.57,5.59-80C312.93,285,348.61,283.65,375.19,289.14Z" style="fill:#fff"></path><path d="M354.36,286.47c-5.13,4.66-17.68,2.94-17.68,2.94s-7.83-2.15-6.18-4.59c4.61-.77,6.84-2.92,7.77-5.68a13.45,13.45,0,0,0,.46-5.27,27.19,27.19,0,0,0-.38-2.94l15.51-11.49C351.83,267,349.34,281,354.36,286.47Z" style="fill:#ebb376"></path><path d="M350.28,266.74c-.62,9.31-8.27,11.88-12,12.4a13.45,13.45,0,0,0,.46-5.27Z" style="opacity:0.2;isolation:isolate"></path><path d="M327.6,235.32s-4.33,14,2.45,20.65,10.78-20,10.78-20Z" style="fill:#263238"></path><path d="M350.42,270.67a13.15,13.15,0,0,1-15.69,2.8,14.6,14.6,0,0,1-7.25-8A14.25,14.25,0,0,1,327,264c-2.43-9.32-1.32-24.81,8.8-29.17a14.26,14.26,0,0,1,19.94,13.86C355.34,259.12,355.59,265.25,350.42,270.67Z" style="fill:#ebb376"></path><path d="M342.3,251.84c.07.84-.42,1.54-1,1.55s-1-.67-1-1.51.43-1.55,1-1.56S342.27,251,342.3,251.84Z" style="fill:#263238"></path><path d="M331.41,252c.08.84-.42,1.55-1,1.56s-1-.68-1-1.52.43-1.54,1-1.55S331.39,251.23,331.41,252Z" style="fill:#263238"></path><path d="M333.46,252.49a30,30,0,0,1-3.91,7.33,4.91,4.91,0,0,0,4.09.68Z" style="fill:#d58745"></path><path d="M342.9,248.77a.54.54,0,0,1-.49-.18,4,4,0,0,0-3.22-1.6.5.5,0,1,1-.09-1h0a5,5,0,0,1,4.09,2,.5.5,0,0,1-.06.7h0A.62.62,0,0,1,342.9,248.77Z" style="fill:#263238"></path><path d="M326.22,248.91a.49.49,0,0,1-.29,0,.51.51,0,0,1-.26-.66h0a5,5,0,0,1,3.53-2.87.5.5,0,0,1,.56.42h0a.51.51,0,0,1-.42.56h0a4,4,0,0,0-2.76,2.32A.51.51,0,0,1,326.22,248.91Z" style="fill:#263238"></path><path d="M347.83,235.87l-.68,4.58a3.42,3.42,0,0,1,1.6,4.35c-1.59,3.82.43,9.87,3.33,12.34,0,0,.14-1.67,1.54-1.24s.77,9.13-2.1,13.21c0,0,5-4.46,7.58-13.54,2.41-8.39,2.16-14.61.51-17.93Z" style="fill:#263238"></path><path d="M360.46,257.15a9.94,9.94,0,0,1-5.58,5.13c-3.27,1.17-5.16-1.7-4.46-4.92.64-2.86,3.1-7,6.49-6.75S361.78,254.22,360.46,257.15Z" style="fill:#ebb376"></path><path d="M332.87,263.05a25.63,25.63,0,0,1,1,3.69c.23,0,.45,0,.68,0,3.06-.14,4.43-1.22,5-2.37a3.91,3.91,0,0,0,.41-1.82,4,4,0,0,0-.14-1.07c-1.58,1.05-4.42,1.4-5.95,1.52C333.28,263,332.87,263.05,332.87,263.05Z" style="fill:#263238"></path><path d="M333.91,263l.33,1.09c2.88-.14,4.89-.63,5.76-1.54a4,4,0,0,0-.14-1.07C338.28,262.51,335.44,262.86,333.91,263Z" style="fill:#fff"></path><path d="M334.57,266.72c3.06-.14,4.43-1.22,5-2.37a9.86,9.86,0,0,0-3.36.83A3.74,3.74,0,0,0,334.57,266.72Z" style="fill:#de5753"></path><path d="M344.65,237.45s-.68,5.47,6.16,8.29,9.32,5.22,9.32,5.22,4.61-13.43-3.76-18.39c0,0-.18-2.56-7.36-5s-17.48-1.3-22.14,7.35c-3.51,6.5-.26,11.12-.26,11.12s.68-3.77,7.35-4.62A26.25,26.25,0,0,0,344.65,237.45Z" style="fill:#263238"></path><path d="M331.57,288.65l1.51,7.38s-8.6,35.85-10.45,54.44l3.13,3.14,4.93-3.14s.44-37.86,4.79-53.77l7.79-6.38-6.13-2Z" style="fill:#407BFF"></path><path d="M352.6,279.45l-14.9,6.72-.88-5.39-5.47,1.93a4.5,4.5,0,0,0-3,4.72l.62,5.91,7.56-4.14,3.77,5.33,17.9-8.62Z" style="fill:#407BFF"></path><path d="M352.6,279.45l-14.9,6.72-.88-5.39-5.47,1.93a4.5,4.5,0,0,0-3,4.72l.62,5.91,7.56-4.14,3.77,5.33,17.9-8.62Z" style="fill:#fff;opacity:0.9;isolation:isolate"></path><polygon points="352.98 325.13 347.84 322.74 342.22 324.34 343.15 311.85 353.9 312.65 352.98 325.13" style="fill:#407BFF"></polygon><polygon points="352.98 325.13 347.84 322.74 342.22 324.34 343.15 311.85 353.9 312.65 352.98 325.13" style="fill:#fff;opacity:0.2;isolation:isolate"></polygon><polygon points="349.31 301.9 350.34 302.69 351.58 302.36 352.38 303.38 353.67 303.37 354.19 304.56 355.44 304.87 355.64 306.14 356.78 306.76 356.66 308.04 357.61 308.92 357.17 310.14 357.88 311.22 357.15 312.29 357.56 313.52 356.59 314.37 356.68 315.66 355.53 316.25 355.3 317.52 354.04 317.81 353.5 318.98 352.21 318.94 351.39 319.94 350.15 319.58 349.11 320.35 348 319.7 346.8 320.18 345.89 319.27 344.61 319.44 343.95 318.33 342.66 318.18 342.3 316.94 341.1 316.47 341.05 315.18 340 314.43 340.28 313.17 339.45 312.18 340.04 311.03 339.48 309.86 340.33 308.89 340.08 307.63 341.14 306.9 341.21 305.61 342.43 305.17 342.82 303.94 344.11 303.81 344.79 302.72 346.07 302.92 347 302.02 348.19 302.54 349.31 301.9" style="fill:#407BFF"></polygon><circle cx="348.64" cy="311.09" r="7.81" transform="translate(-12.62 14.75) rotate(-2.38)" style="fill:#fff;opacity:0.4;isolation:isolate"></circle><path d="M345.21,312.76l-.41,1.7,1.09.08.42-1.7.95.07-.42,1.7,1.11.08.4-1.7,1.14.08.16-.73h0l.09-.35-1.13-.08.34-1.37,1.14.09.25-1.09-1.13-.08.46-1.95-1.09-.08-.48,1.95-.94-.07.47-1.95-1.09-.08-.47,2-1.09-.08-.26,1.09,1.09.07-.34,1.37-1.09-.08-.09.35h0l-.17.73Zm2.63-2.31-.32,1.37-.95-.07.33-1.37Z" style="fill:#407BFF"></path><path d="M351.17,308.53l-.05.77.93.06-.23,3.13h0l-.19,2.47,1.09.08.19-2.47.36-4.79-.77-.06a1.53,1.53,0,0,1-.56.57A1.48,1.48,0,0,1,351.17,308.53Z" style="fill:#407BFF"></path><path d="M379.29,356.28l-2.13,2.35-6.3,7s-.45,3.15-1.74,4.66a58.44,58.44,0,0,1-5.09,5.28,23.46,23.46,0,0,1-3,2.33,8.78,8.78,0,0,1-1.43.77c-.15.07-.46-.23-.86-.77a62.69,62.69,0,0,1-3.77-6.27c-.74-1.35-1.26-2.36-1.26-2.36a47.61,47.61,0,0,1,2.74-4.25,7.63,7.63,0,0,1,.49-.67c1.74-2.34,3.94-4.81,6.07-5.73a2.89,2.89,0,0,1,1-.2h0a24.92,24.92,0,0,1,4.12.2l4.2-4.24,5.09-5.14Z" style="fill:#ebb376"></path><path d="M373.6,289.3c7.69.63,33,35.46,32.2,41.57s-27.59,28.69-27.59,28.69l-6.68-5.91s21.73-21.3,22-23.67-24.1-25.37-24.1-25.37Z" style="fill:#fff"></path><path d="M371.22,307.27c-.64,3.16-1.31,6.6-2,10.21-4.12-8-1.4-18.12-1.4-18.12C368.19,303.27,371.22,307.27,371.22,307.27Z" style="opacity:0.1;isolation:isolate"></path></g><polygon points="323.51 219.4 265.76 295.09 272.91 219.4 323.51 219.4" style="fill:#fff;opacity:0.2;isolation:isolate"></polygon><polygon points="353.38 219.4 261.53 339.78 263.07 323.59 342.56 219.4 353.38 219.4" style="fill:#fff;opacity:0.2;isolation:isolate"></polygon></g><g id="Pen"><path d="M279.65,417.6h11.9a2.44,2.44,0,0,0,2.44-2.44h0a2.44,2.44,0,0,0-2.44-2.44h-11.9Z" style="fill:#263238"></path><path d="M279.65,412.72v4.88H292a1.89,1.89,0,0,0,2-1.7v-1.49a1.6,1.6,0,0,0-.77-1.32,2.28,2.28,0,0,0-1.26-.37Z" style="fill:#fff;opacity:0.5;isolation:isolate"></path><path d="M279.65,412.72v3.34H291.2a1.88,1.88,0,0,0,2-1.7v-1.27a2.28,2.28,0,0,0-1.26-.37Z" style="fill:#fff;opacity:0.5;isolation:isolate"></path><polygon points="144.13 415.72 148.78 415.72 148.78 414.59 144.13 414.59 142.84 415.16 144.13 415.72" style="fill:#263238"></polygon><polygon points="144.13 415.72 148.78 415.72 148.78 414.59 144.13 414.59 142.84 415.16 144.13 415.72" style="fill:#fff;opacity:0.5;isolation:isolate"></polygon><path d="M146.66,413.94a62.74,62.74,0,0,1,15.53-2.87c46-2.64,74.49-2.82,120.06-.53a2.28,2.28,0,0,1,2.35,2.07v5.09a2.3,2.3,0,0,1-2.35,2.08c-45.57,2.28-74.1,2.1-120.06-.53a63.22,63.22,0,0,1-15.53-2.88Z" style="fill:#263238"></path><path d="M146.66,413.94v2.43a62.74,62.74,0,0,0,15.53,2.87c46,2.64,74.49,2.82,120.06.53a2.27,2.27,0,0,0,2.34-2.07v-5.08a2.27,2.27,0,0,0-2.34-2.08c-45.57-2.29-74.1-2.11-120.06.53a62.58,62.58,0,0,0-15.52,2.87Z" style="fill:#263238"></path><path d="M146.67,413.94a63.51,63.51,0,0,0,15.52,2.87c46,2.64,74.49,2.81,120.06.53a2.29,2.29,0,0,0,2.34-2.08v-2.64a2.27,2.27,0,0,0-2.34-2.08c-45.57-2.29-74.1-2.11-120.06.53A62.58,62.58,0,0,0,146.67,413.94Z" style="fill:#fff;opacity:0.1;isolation:isolate"></path><path d="M232.43,408l4.82.95.51-.95a244.39,244.39,0,0,1,37.44,1.41v11.31l5.16-.4V408.16l-5.16-.41h0C266.48,407.08,239.82,405.32,232.43,408Z" style="fill:#407BFF"></path><rect x="216.77" y="408.95" width="1.9" height="12.42" transform="translate(435.45 830.31) rotate(180)" style="fill:#407BFF"></rect><polygon points="280.36 410.44 275.2 410.2 275.2 412.98 280.36 412.98 280.36 410.44" style="fill:#fff;opacity:0.2;isolation:isolate"></polygon><path d="M232.43,408c11.55-1.91,47.93,1,47.93,1v-.78l-5.16-.41h0C266.48,407.08,239.82,405.32,232.43,408Z" style="fill:#fff;opacity:0.2;isolation:isolate"></path><rect x="216.77" y="408.95" width="1.9" height="5.44" transform="translate(435.45 823.33) rotate(180)" style="fill:#fff;opacity:0.2;isolation:isolate"></rect></g></svg>