<svg xmlns="http://www.w3.org/2000/svg" viewBox="0 0 500 500"><g id="background-complete"><rect x="416.78" y="398.49" width="33.12" height="0.25" style="fill:#ebebeb"></rect><rect x="322.53" y="401.21" width="8.69" height="0.25" style="fill:#ebebeb"></rect><rect x="396.59" y="389.21" width="19.19" height="0.25" style="fill:#ebebeb"></rect><rect x="52.46" y="390.89" width="43.19" height="0.25" style="fill:#ebebeb"></rect><rect x="104.56" y="390.89" width="6.33" height="0.25" style="fill:#ebebeb"></rect><rect x="131.47" y="395.11" width="93.68" height="0.25" style="fill:#ebebeb"></rect><path d="M238.4,337.8H45.3a5.71,5.71,0,0,1-5.71-5.71V60.66A5.71,5.71,0,0,1,45.3,55H238.4a5.71,5.71,0,0,1,5.71,5.71V332.09A5.71,5.71,0,0,1,238.4,337.8ZM45.3,55.2a5.47,5.47,0,0,0-5.46,5.46V332.09a5.47,5.47,0,0,0,5.46,5.46H238.4a5.47,5.47,0,0,0,5.46-5.46V60.66a5.47,5.47,0,0,0-5.46-5.46Z" style="fill:#ebebeb"></path><path d="M454.7,337.8H261.6a5.71,5.71,0,0,1-5.71-5.71V60.66A5.71,5.71,0,0,1,261.6,55H454.7a5.71,5.71,0,0,1,5.71,5.71V332.09A5.71,5.71,0,0,1,454.7,337.8ZM261.6,55.2a5.47,5.47,0,0,0-5.46,5.46V332.09a5.47,5.47,0,0,0,5.46,5.46H454.7a5.47,5.47,0,0,0,5.46-5.46V60.66a5.47,5.47,0,0,0-5.46-5.46Z" style="fill:#ebebeb"></path><rect y="382.03" width="500" height="0.25" style="fill:#ebebeb"></rect><polygon points="304.48 183.39 307.82 185.22 304.48 187.05 302.65 190.39 300.83 187.05 297.49 185.22 300.83 183.39 302.65 180.05 304.48 183.39" style="fill:#f0f0f0"></polygon><polygon points="317.13 178.8 318.8 179.71 317.13 180.62 316.22 182.29 315.31 180.62 313.64 179.71 315.31 178.8 316.22 177.13 317.13 178.8" style="fill:#ebebeb"></polygon><polygon points="320.17 69.75 318.31 73.08 322.11 72.85 325.44 74.7 325.21 70.9 327.06 67.58 323.26 67.81 319.94 65.95 320.17 69.75" style="fill:#f0f0f0"></polygon><polygon points="307.01 72.6 306.09 74.26 307.98 74.14 309.64 75.07 309.53 73.17 310.45 71.51 308.56 71.63 306.9 70.7 307.01 72.6" style="fill:#ebebeb"></polygon><polygon points="379.4 158.74 382.74 160.56 379.4 162.39 377.57 165.73 375.75 162.39 372.4 160.56 375.75 158.74 377.57 155.4 379.4 158.74" style="fill:#f0f0f0"></polygon><polygon points="392.05 154.14 393.72 155.06 392.05 155.97 391.14 157.64 390.23 155.97 388.56 155.06 390.23 154.14 391.14 152.48 392.05 154.14" style="fill:#ebebeb"></polygon><polygon points="217.31 132.18 220.65 134 217.31 135.83 215.48 139.17 213.66 135.83 210.31 134 213.66 132.18 215.48 128.84 217.31 132.18" style="fill:#f0f0f0"></polygon><polygon points="229.96 127.58 231.63 128.5 229.96 129.41 229.05 131.08 228.14 129.41 226.47 128.5 228.14 127.58 229.05 125.92 229.96 127.58" style="fill:#ebebeb"></polygon><polygon points="81.66 113.11 85 114.93 81.66 116.76 79.83 120.1 78 116.76 74.66 114.93 78 113.11 79.83 109.77 81.66 113.11" style="fill:#f0f0f0"></polygon><polygon points="94.31 108.51 95.97 109.43 94.31 110.34 93.39 112.01 92.48 110.34 90.81 109.43 92.48 108.51 93.39 106.85 94.31 108.51" style="fill:#ebebeb"></polygon><polygon points="394.57 80.37 393.88 84.11 391.1 81.5 387.36 80.8 389.97 78.03 390.67 74.29 393.44 76.89 397.18 77.59 394.57 80.37" style="fill:#f0f0f0"></polygon><polygon points="402.87 90.97 402.52 92.84 401.13 91.54 399.27 91.19 400.57 89.8 400.92 87.93 402.3 89.23 404.17 89.58 402.87 90.97" style="fill:#ebebeb"></polygon><polygon points="218.32 73.22 217.55 76.95 214.82 74.3 211.09 73.53 213.75 70.8 214.51 67.07 217.24 69.73 220.97 70.49 218.32 73.22" style="fill:#f0f0f0"></polygon><polygon points="226.43 83.96 226.05 85.82 224.68 84.5 222.82 84.12 224.15 82.75 224.53 80.89 225.89 82.22 227.75 82.6 226.43 83.96" style="fill:#ebebeb"></polygon><polygon points="142.08 102.62 144.16 103.75 142.08 104.89 140.95 106.96 139.81 104.89 137.74 103.75 139.81 102.62 140.95 100.54 142.08 102.62" style="fill:#f0f0f0"></polygon><polygon points="185.86 99.41 187.94 100.54 185.86 101.68 184.73 103.75 183.59 101.68 181.52 100.54 183.59 99.41 184.73 97.33 185.86 99.41" style="fill:#f0f0f0"></polygon><polygon points="159.92 91.4 161.99 92.54 159.92 93.67 158.78 95.75 157.65 93.67 155.57 92.54 157.65 91.4 158.78 89.33 159.92 91.4" style="fill:#f0f0f0"></polygon><polygon points="438.75 122.42 440.82 123.56 438.75 124.69 437.61 126.77 436.48 124.69 434.4 123.56 436.48 122.42 437.61 120.35 438.75 122.42" style="fill:#f0f0f0"></polygon><polygon points="128.29 85.38 130.37 86.51 128.29 87.65 127.16 89.72 126.03 87.65 123.95 86.51 126.03 85.38 127.16 83.3 128.29 85.38" style="fill:#f0f0f0"></polygon><polygon points="135.82 78.06 137.89 79.2 135.82 80.33 134.68 82.41 133.55 80.33 131.47 79.2 133.55 78.06 134.68 75.99 135.82 78.06" style="fill:#f0f0f0"></polygon><polygon points="439.42 175.27 441.5 176.4 439.42 177.54 438.29 179.61 437.15 177.54 435.08 176.4 437.15 175.27 438.29 173.19 439.42 175.27" style="fill:#f0f0f0"></polygon><path d="M292.35,383.07s38.67-30.94,53.26-31.46S465.69,381.5,465.69,381.5Z" style="fill:#f0f0f0"></path><path d="M212.09,381.9s-45.71-22.49-52.9-23-31.61,23.22-31.61,23.22Z" style="fill:#e6e6e6"></path><path d="M172.9,382.27s-76.85-22.86-88.69-23.39-52,23-52,23Z" style="fill:#ebebeb"></path><path d="M387.19,327.63c3.23-3.25,7.55-3.69,9.65-1s1.17,7.55-2.07,10.8-7.55,3.68-9.65,1S384,330.88,387.19,327.63Z" style="fill:#e6e6e6"></path><ellipse cx="381.32" cy="322.13" rx="20.99" ry="15.43" transform="translate(-113.04 391.28) rotate(-48.15)" style="fill:#ebebeb"></ellipse><path d="M408.7,311c6-5.64,13.93-6.4,17.8-1.69s2.15,13.09-3.81,18.73-13.94,6.39-17.8,1.69S402.73,316.62,408.7,311Z" style="fill:#e6e6e6"></path><path d="M415.21,322c6-5.64,13.94-6.4,17.8-1.69s2.16,13.09-3.81,18.73-13.93,6.4-17.8,1.69S409.25,327.65,415.21,322Z" style="fill:#ebebeb"></path><path d="M395.6,304.72c8.23-7.78,19.22-8.83,24.54-2.34s3,18.05-5.25,25.83-19.22,8.83-24.55,2.34S387.37,312.5,395.6,304.72Z" style="fill:#f0f0f0"></path><path d="M379.75,317.67c4.48-4.5,10.45-5.1,13.35-1.35s1.62,10.44-2.86,14.93-10.45,5.1-13.35,1.35S375.27,322.17,379.75,317.67Z" style="fill:#f0f0f0"></path><path d="M416.7,332.64c3.23-3.25,7.55-3.69,9.65-1s1.17,7.55-2.07,10.8-7.55,3.68-9.65,1S413.46,335.89,416.7,332.64Z" style="fill:#f0f0f0"></path><path d="M416.36,344.83l-5.68,4.75c.46,6.69.83,22.1.83,22.1l2,10.78-17.81.14s.81-9.1.81-9.59S400,355.08,400,355.08l1.21-9.76L392,342.8l-1.68-4.35L383.57,335l-3.3-4.55,1.28-.27,3.64,4.2,4.25.83-1.82-3.87h2l5.06,9,6.52,1.2-.86-12.6c6.28,1.77,6.89-1.46,6.89-1.46s2.15,17,2.91,18.89l3.36-1.52,3.64-5.17h1.62Z" style="fill:#f5f5f5"></path><path d="M127.82,344.14c-2.22-2.23-5.19-2.53-6.63-.67s-.8,5.18,1.42,7.41,5.19,2.53,6.63.67S130.05,346.37,127.82,344.14Z" style="fill:#e6e6e6"></path><path d="M138.61,332.13c-5.76-5.46-13.47-6.19-17.2-1.64s-2.09,12.66,3.68,18.11,13.47,6.19,17.21,1.64S144.38,337.58,138.61,332.13Z" style="fill:#ebebeb"></path><path d="M113.05,332.7c-4.1-3.87-9.57-4.39-12.22-1.16s-1.49,9,2.61,12.86,9.57,4.4,12.22,1.17S117.15,336.58,113.05,332.7Z" style="fill:#e6e6e6"></path><path d="M108.58,340.28c-4.1-3.87-9.58-4.39-12.23-1.16s-1.48,9,2.62,12.86,9.57,4.4,12.22,1.16S112.67,344.15,108.58,340.28Z" style="fill:#ebebeb"></path><path d="M122.05,328.4c-5.66-5.34-13.2-6.06-16.86-1.6s-2,12.4,3.61,17.74,13.2,6.06,16.85,1.6S127.7,333.75,122.05,328.4Z" style="fill:#f0f0f0"></path><path d="M132.93,337.3c-3.07-3.09-7.18-3.5-9.17-.93s-1.11,7.17,2,10.26,7.18,3.5,9.17.93S136,340.39,132.93,337.3Z" style="fill:#f0f0f0"></path><path d="M107.55,347.58c-2.22-2.23-5.19-2.53-6.62-.67s-.81,5.18,1.41,7.41,5.19,2.53,6.63.67S109.78,349.81,107.55,347.58Z" style="fill:#f0f0f0"></path><path d="M107.78,356l3.91,3.26c-.31,4.6-.57,15.18-.57,15.18l-1.39,7.4,12.23.11s-.55-6.25-.55-6.59S119.05,363,119.05,363l-.84-6.7,6.31-1.73,1.15-3,4.64-2.36,2.26-3.12-.87-.2-2.51,2.89-2.92.57,1.25-2.66h-1.39l-3.47,6.16-4.48.83.59-8.65c-4.31,1.21-4.73-1-4.73-1s-1.48,11.64-2,13L109.73,356l-2.5-3.55h-1.11Z" style="fill:#f5f5f5"></path><path d="M158,382.28l18-32.56,53.5-33.48,18.23-38.13s42.87,21.7,44.1,22.25,17.14,57.37,18.49,58.25,14.06,10.84,14.06,10.84l1.06,12.66Z" style="fill:#f5f5f5"></path><polygon points="158.02 382.28 183.66 357.58 219.99 340.42 226.79 362.14 235.94 337.43 246.32 345.85 244.07 316.8 245.87 307.51 251.97 313.68 247.74 278.11 291.84 300.36 310.33 358.61 324.38 369.45 325.45 382.11 158.02 382.28" style="fill:#ebebeb"></polygon><path d="M253,280.39l13.23,24.44,10.91,4.3s5.75,11.93,5.69,11.17-.66-14.14-.66-14.14l9.68-5.8Z" style="fill:#fafafa"></path><polygon points="310.33 358.61 314.6 368.48 324.38 369.45 310.33 358.61" style="fill:#fafafa"></polygon><path d="M295.75,292.13l37.92-2.21a6.93,6.93,0,0,1,3.85.91h0c12.53,10.86,26,3.61,32-.67a14.77,14.77,0,0,1,7.72-2.78l42.26-2.46c15.85-.92,18.38-23.34,3.11-27.68l-.59-.16c15.75-14.76-22.28-41.74-59.4.84,2.29-13.61-32.51-6.71-42.18,12.24C315.93,258.35,283.69,281.2,295.75,292.13Z" style="fill:#f0f0f0"></path><path d="M70.42,278.48l13.13-.25,1.09.46a21.54,21.54,0,0,0,18.62-.84h0l11-.21s10.2-4.07,8.68-14.3S106,262,106,262s4.43-14.39-10.52-10a22.24,22.24,0,0,0-16.13,18.56S59.59,267.4,70.42,278.48Z" style="fill:#f0f0f0"></path><path d="M129,317.71h56.16c7.19,0,8.93-10.07,2.13-12.44l-.26-.09c7.51-6.26-9-19.46-26.89-1.18,1.4-6.1-14.52-3.89-19.39,4.42C139.05,303,123.87,312.45,129,317.71Z" style="fill:#f0f0f0"></path></g><g id="background-simple"><path d="M132.52,156c-20.36,29.17-32.64,67-27.1,103.47s19.06,67,46.46,87.81c33.67,25.61,75.31,37.83,115.9,34.06,24-2.22,56.89-9.36,77.13-23.83a121.82,121.82,0,0,0,44.94-61.15c8.17-25.41,7.55-53.66,1.31-79.74-8.78-36.7-23.28-65.44-55.67-93-65.93-56.22-143.78-23.15-166.89-5.4A171.57,171.57,0,0,0,132.52,156Z" style="fill:#407BFF"></path><path d="M132.52,156c-20.36,29.17-32.64,67-27.1,103.47s19.06,67,46.46,87.81c33.67,25.61,75.31,37.83,115.9,34.06,24-2.22,56.89-9.36,77.13-23.83a121.82,121.82,0,0,0,44.94-61.15c8.17-25.41,7.55-53.66,1.31-79.74-8.78-36.7-23.28-65.44-55.67-93-65.93-56.22-143.78-23.15-166.89-5.4A171.57,171.57,0,0,0,132.52,156Z" style="fill:#fff;opacity:0.9"></path></g><g id="Shadow"><ellipse id="path" cx="250" cy="421.69" rx="193.89" ry="11.32" style="fill:#f5f5f5"></ellipse></g><g id="Plants"><path d="M103.5,394.42l17.35,1.34s-2.93-21.65.71-24.06c4.48-3,6.35.85,6.87,7.61s.09,24.85-4.41,24.34S103.5,405,103.5,405Z" style="fill:#407BFF"></path><path d="M103.5,394.42l17.35,1.34s-2.93-21.65.71-24.06c4.48-3,6.35.85,6.87,7.61s.09,24.85-4.41,24.34S103.5,405,103.5,405Z" style="opacity:0.1"></path><path d="M96.51,343.65l-20.08,1.56s3.39-25.08-.83-27.87c-5.18-3.43-7.35,1-7.95,8.81s-.11,28.78,5.11,28.19,23.75,1.56,23.75,1.56Z" style="fill:#407BFF"></path><path d="M96.51,343.65l-20.08,1.56s3.39-25.08-.83-27.87c-5.18-3.43-7.35,1-7.95,8.81s-.11,28.78,5.11,28.19,23.75,1.56,23.75,1.56Z" style="opacity:0.1"></path><path d="M94.24,423.85C95,422.37,91,292.63,91,292.63s.85-17.76,13.86-19.1c6.5-.67,10.44,4.34,12.75,9.52a31.76,31.76,0,0,1,2.47,16l-8.8,124.83Z" style="fill:#407BFF"></path><g style="opacity:0.2"><path d="M96.7,422.54,95.35,317.19c-.18-14.13-.16-29.08,7.07-41.23a112.66,112.66,0,0,0-4.56,20.44c-.82,6.44-.49,12.71-.62,19.16-.32,14.75.87,90.5.74,100.05a23.22,23.22,0,0,1-.94,7.53Z"></path></g><g style="opacity:0.2"><path d="M109.89,422.36c1.44-35.09,4-69.27,5.47-104.36.58-14.12,1-29.07-5.91-41.42a113.35,113.35,0,0,1,4,20.56c.64,6.46.13,12.72.09,19.18-.09,14.75-4.58,89.52-4.71,99.08a22.78,22.78,0,0,0,.73,7.55Z"></path></g><path d="M99.34,281.24c-.08,0-.14-.06-.21-.15h0a.61.61,0,0,1-.09-.17l0-.07h0l-4.29-8.19.45-.23,2.2,4.21c1.23,2.34,1.81,3.45,2,4l0,0,.13.25,0,0c.08.24,0,.27,0,.31A.27.27,0,0,1,99.34,281.24Z" style="fill:#fff"></path><path d="M110.34,276.5l-.47-.17a19.77,19.77,0,0,0,1-4.5l.5.06A20.21,20.21,0,0,1,110.34,276.5Z" style="fill:#fff"></path><path d="M121,298.52a5.28,5.28,0,0,1-2-.39l.19-.47a4.73,4.73,0,0,0,3.62,0l.2.46A5.19,5.19,0,0,1,121,298.52Z" style="fill:#fff"></path><path d="M90.52,301.85a7.16,7.16,0,0,1-2.74-.54l.2-.47a6.57,6.57,0,0,0,4.13.31l.12.49A7.08,7.08,0,0,1,90.52,301.85Z" style="fill:#fff"></path><path d="M117.75,286.34l-.31-.4a18.17,18.17,0,0,0,2.79-2.61l.38.33A20.17,20.17,0,0,1,117.75,286.34Z" style="fill:#fff"></path><path d="M92.62,285.56a2,2,0,0,0-2.08-.85l-.1-.49a2.54,2.54,0,0,1,2.6,1.07Z" style="fill:#fff"></path><path d="M119.61,335.31a23.32,23.32,0,0,1-5-2.9l.3-.4a22.4,22.4,0,0,0,4.93,2.84Z" style="fill:#fff"></path><path d="M91.72,340.08l-.08-.49a4.75,4.75,0,0,0,2.7-1.38l.36.35A5.22,5.22,0,0,1,91.72,340.08Z" style="fill:#fff"></path><rect x="93.71" y="383.99" width="5.42" height="0.5" transform="translate(-216.84 141.74) rotate(-38.17)" style="fill:#fff"></rect><path d="M116.08,392.12a3.23,3.23,0,0,0-3-1.08l-.09-.49a3.74,3.74,0,0,1,3.47,1.24Z" style="fill:#fff"></path><path d="M105.27,366.88l-.11-.49a7.75,7.75,0,0,0,2.57-1.07l.27.43A8.49,8.49,0,0,1,105.27,366.88Z" style="fill:#fff"></path><rect x="116.97" y="359.4" width="0.5" height="4.54" transform="translate(-255.82 435.03) rotate(-83.17)" style="fill:#fff"></rect><rect x="99.28" y="352.4" width="1.66" height="0.5" style="fill:#fff"></rect><path d="M111.17,352.2v-.5a2.08,2.08,0,0,0,1.27-.44l.31.39A2.65,2.65,0,0,1,111.17,352.2Z" style="fill:#fff"></path><rect x="98.22" y="374.68" width="0.5" height="0.75" transform="translate(-288.46 349.63) rotate(-71.53)" style="fill:#fff"></rect><rect x="113.86" y="376.93" width="0.5" height="3.17" transform="translate(-280.51 402.34) rotate(-76.68)" style="fill:#fff"></rect><polygon points="96.12 318.89 95.82 318.49 97.04 317.58 97.34 317.98 96.12 318.89" style="fill:#fff"></polygon><rect x="117.21" y="313.93" width="0.5" height="2.62" transform="translate(-209.11 396.03) rotate(-83.46)" style="fill:#fff"></rect><rect x="98.8" y="292.93" width="0.5" height="1.06" transform="translate(-207.71 250.69) rotate(-63.41)" style="fill:#fff"></rect><path d="M104.52,285.88a12.22,12.22,0,0,0-.57-3.7l.48-.15a12.84,12.84,0,0,1,.59,3.85Z" style="fill:#fff"></path><path d="M111.34,285.83l-.34-.37a6.5,6.5,0,0,0,1.41-1.81l.44.23A6.86,6.86,0,0,1,111.34,285.83Z" style="fill:#fff"></path><path d="M113.77,294.24a.76.76,0,0,1-.33-.08l.22-.45a.31.31,0,0,0,.38-.11l.43.25A.82.82,0,0,1,113.77,294.24Z" style="fill:#fff"></path><rect x="107.21" y="304.25" width="0.5" height="2.04" transform="translate(-201.1 207.65) rotate(-53.05)" style="fill:#fff"></rect><path d="M120.65,308a12.5,12.5,0,0,1-2.9-.56l.15-.47a11.57,11.57,0,0,0,2.78.53Z" style="fill:#fff"></path><rect x="96.08" y="308.9" width="1.86" height="0.5" transform="translate(-204.35 190.12) rotate(-51.03)" style="fill:#fff"></rect><path d="M103.3,317.69l-.36-.34a1.7,1.7,0,0,0,.34-1.67l.48-.17A2.2,2.2,0,0,1,103.3,317.69Z" style="fill:#fff"></path><rect x="112.5" y="310.67" width="0.5" height="1.19" transform="translate(-169.12 137.63) rotate(-38.45)" style="fill:#fff"></rect><path d="M119.73,326.74a10.15,10.15,0,0,0-2.26-1.7l.24-.43a10,10,0,0,1,2.37,1.78Z" style="fill:#fff"></path><rect x="90.38" y="328.28" width="3.53" height="0.5" transform="translate(-105.05 50.08) rotate(-19.64)" style="fill:#fff"></rect><path d="M98.15,334.1l-.13-.48a1.14,1.14,0,0,0,.79-1.15l.5,0A1.65,1.65,0,0,1,98.15,334.1Z" style="fill:#fff"></path><path d="M114.73,330.21a2.36,2.36,0,0,0-1.48-1.08l.11-.49a2.85,2.85,0,0,1,1.8,1.32Z" style="fill:#fff"></path><path d="M106,341.44l-.09-.5a.28.28,0,0,0,.2-.21.32.32,0,0,0,0-.3l.35-.35a.79.79,0,0,1,.17.79A.81.81,0,0,1,106,341.44Z" style="fill:#fff"></path><rect x="105.57" y="330.53" width="0.5" height="0.75" transform="translate(-99.1 50.36) rotate(-18.41)" style="fill:#fff"></rect><path d="M118.23,342.14a2.65,2.65,0,0,0-1.64-1.21l.11-.48a3.11,3.11,0,0,1,2,1.43Z" style="fill:#fff"></path><path d="M69,323.65a11.72,11.72,0,0,1-3.36-2.95l.39-.3a11.24,11.24,0,0,0,3.22,2.81Z" style="fill:#fff"></path><rect x="72.18" y="314.39" width="0.5" height="2.61" style="fill:#fff"></rect><path d="M75.71,320.72l-.22-.45a8.31,8.31,0,0,0,3.05-2.53L79,318A8.77,8.77,0,0,1,75.71,320.72Z" style="fill:#fff"></path><rect x="74.78" y="327.34" width="0.5" height="0.53" transform="translate(-251.48 247.94) rotate(-63.39)" style="fill:#fff"></rect><rect x="77.42" y="326.26" width="2.14" height="0.5" style="fill:#fff"></rect><path d="M67.13,332.19l-.31-.4a5.73,5.73,0,0,1,2.22-1l.11.49A5.08,5.08,0,0,0,67.13,332.19Z" style="fill:#fff"></path><path d="M69.18,342.48l-.5-.07A1.66,1.66,0,0,1,70,341.05l.08.49A1.16,1.16,0,0,0,69.18,342.48Z" style="fill:#fff"></path><path d="M75,338.18a2.46,2.46,0,0,1-1.29-.83l.38-.32a2,2,0,0,0,1,.67Z" style="fill:#fff"></path><rect x="77.66" y="332.92" width="1.66" height="0.5" style="fill:#fff"></rect><path d="M77.52,343.26a1.24,1.24,0,0,0-1.4-.31l-.21-.45a1.75,1.75,0,0,1,2,.44Z" style="fill:#fff"></path><path d="M69.87,351.9l-.14-.48a2.44,2.44,0,0,0,1.35-1l.42.27A2.9,2.9,0,0,1,69.87,351.9Z" style="fill:#fff"></path><path d="M78.36,356.11l-.43-.25a3.9,3.9,0,0,0,.41-2.68l.49-.1A4.44,4.44,0,0,1,78.36,356.11Z" style="fill:#fff"></path><polygon points="87.95 356.02 87.35 353.67 87.84 353.55 88.44 355.9 87.95 356.02" style="fill:#fff"></polygon><path d="M86,345.77l-.49,0a6.7,6.7,0,0,0-.38-2.55l.47-.17A7.1,7.1,0,0,1,86,345.77Z" style="fill:#fff"></path><rect x="78.59" y="348.74" width="0.5" height="0.98" transform="translate(-278.9 335.17) rotate(-75.03)" style="fill:#fff"></rect><rect x="90.48" y="348.75" width="1.45" height="0.5" transform="translate(-59.3 21.18) rotate(-10.01)" style="fill:#fff"></rect><path d="M83.42,352.88l-.13-.48a.17.17,0,0,0,.06-.06.12.12,0,0,0,0-.08l.47-.17a.62.62,0,0,1,0,.48A.63.63,0,0,1,83.42,352.88Z" style="fill:#fff"></path><path d="M92.59,362.69a13.31,13.31,0,0,1-1.41-.07l0-.5A13.39,13.39,0,0,0,95,362l.09.49A13.59,13.59,0,0,1,92.59,362.69Z" style="fill:#fff"></path><path d="M115.82,370.93a1.58,1.58,0,0,1-1.35-.78l.43-.25a1.1,1.1,0,0,0,1,.53l0,.49Z" style="fill:#fff"></path><path d="M91.08,374.16l-.34-.37a6.12,6.12,0,0,1,3.78-1.62l0,.5A5.55,5.55,0,0,0,91.08,374.16Z" style="fill:#fff"></path><rect x="106.26" y="384.94" width="0.5" height="1.52" transform="translate(-261.32 228.19) rotate(-51.38)" style="fill:#fff"></rect><path d="M92.46,403.75l-.39-.32a14,14,0,0,1,4.42-3.6l.23.44A13.54,13.54,0,0,0,92.46,403.75Z" style="fill:#fff"></path><polygon points="97.11 413.13 96.68 412.87 97.81 410.94 98.24 411.19 97.11 413.13" style="fill:#fff"></polygon><rect x="105.91" y="411.3" width="0.5" height="3.43" transform="translate(-212.97 130.16) rotate(-34.03)" style="fill:#fff"></rect><rect x="108.31" y="400.19" width="0.5" height="2.03" transform="translate(-304.19 352.34) rotate(-68.11)" style="fill:#fff"></rect><path d="M122,404.42a12.63,12.63,0,0,1-2.61-2.23l.38-.33a11.9,11.9,0,0,0,2.5,2.14Z" style="fill:#fff"></path><rect x="127.29" y="379.71" width="2.42" height="0.5" transform="translate(-66.14 29.25) rotate(-10.34)" style="fill:#fff"></rect><path d="M125.19,371.93a2.89,2.89,0,0,1,1-2.64l.32.38a2.39,2.39,0,0,0-.81,2.18Z" style="fill:#fff"></path><path d="M120.61,377.52a2.9,2.9,0,0,1-1.91-2.25l.5-.08a2.38,2.38,0,0,0,1.57,1.86Z" style="fill:#fff"></path><path d="M130.08,395.82a7.48,7.48,0,0,0-2.33-.88l.09-.49a7.91,7.91,0,0,1,2.49.94Z" style="fill:#fff"></path><path d="M117.2,396.15a3.29,3.29,0,0,1,.45-1.77l.43.25a2.82,2.82,0,0,0-.38,1.5Z" style="fill:#fff"></path><path d="M120.82,388.05a4.69,4.69,0,0,1-2-1.47l.39-.31a4.21,4.21,0,0,0,1.83,1.31Z" style="fill:#fff"></path><path d="M129,390.24a.81.81,0,0,1-.69-.38l.42-.26a.32.32,0,0,0,.39.11l.23.45A.85.85,0,0,1,129,390.24Z" style="fill:#fff"></path><rect x="123.74" y="384.02" width="0.5" height="0.48" style="fill:#fff"></rect><rect x="120.9" y="392.44" width="1.91" height="0.5" transform="translate(-61.25 24.55) rotate(-9.21)" style="fill:#fff"></rect><polygon points="127.38 402.24 126.15 400.85 126.52 400.51 127.75 401.9 127.38 402.24" style="fill:#fff"></polygon><rect x="115.18" y="399.8" width="0.24" height="0.5" style="fill:#fff"></rect><path d="M113.92,412.22a6.34,6.34,0,0,0-2.77-.87l0-.49a6.72,6.72,0,0,1,3,.93Z" style="fill:#fff"></path><rect x="117.21" y="348.69" width="0.5" height="2.45" transform="translate(-245.49 282.81) rotate(-60.97)" style="fill:#fff"></rect><rect x="103.64" y="271.86" width="0.5" height="1.67" transform="translate(-59.09 30.63) rotate(-13.1)" style="fill:#fff"></rect><path d="M116.6,279.52l-.49-.13a2.48,2.48,0,0,1,.85-1.3l.31.39A1.91,1.91,0,0,0,116.6,279.52Z" style="fill:#fff"></path><rect x="98.57" y="394.7" width="2.38" height="0.5" style="fill:#fff"></rect><path d="M139.19,424.3c-.36.06-.77.11-1.23.17H70.4a4.79,4.79,0,0,1,.32-2.28,17.1,17.1,0,0,0,.25-11,17.26,17.26,0,0,1,2.34,9.09c.31-3.19-.44-12.64-.12-15.83,4,4.55,1.65,14.16,4,17.21,2.74-.73.39-16.57.66-15.44,1.47,0,2.85,8.59,3.26,11.48a25.16,25.16,0,0,1,9-19c-6.82,9.05-4.92,16.58-4.71,23.15,2.14-5.59,3-7.68,1.58-13.4,5.57,5.22.28,14.4,3.15,14.78,0,0,2.71-10.39,7.36-16.45a25.59,25.59,0,0,0,1,14.36c1.61,1.25.06-13.15,3.16-16.89.37,2.69,1.53,15.39,3,13.7-.14-4.53-1.42-14.51-4.05-18.14a19.71,19.71,0,0,1,6.09,7.44c.11-.33.23-.66.35-1a55.74,55.74,0,0,0,2-7.37,81.89,81.89,0,0,1-.57,11.15A45.2,45.2,0,0,1,110,416c.79-2.26,1.57-4.89,2.74-8.1-1.18,3.36-.71,6.65,0,10.1,5,.69,4.33-10.87,3.44-14.49,4.09,1.42,4.72,10.88,4.8,15.82,0,0,4-3,6.62-15.88,2.26,4.25-.87,15.77,2.26,18.31.88.72,1.12-14.32,7.39-17.7-2.45,1.32-2.81,8.51-1.75,13.65A12.49,12.49,0,0,0,139.19,424.3Z" style="fill:#407BFF"></path><path d="M139.19,424.3c-.36.06-.77.11-1.23.17H70.4a4.79,4.79,0,0,1,.32-2.28,17.1,17.1,0,0,0,.25-11,17.26,17.26,0,0,1,2.34,9.09c.31-3.19-.44-12.64-.12-15.83,4,4.55,1.65,14.16,4,17.21,2.74-.73.39-16.57.66-15.44,1.47,0,2.85,8.59,3.26,11.48a25.16,25.16,0,0,1,9-19c-6.82,9.05-4.92,16.58-4.71,23.15,2.14-5.59,3-7.68,1.58-13.4,5.57,5.22.28,14.4,3.15,14.78,0,0,2.71-10.39,7.36-16.45a25.59,25.59,0,0,0,1,14.36c1.61,1.25.06-13.15,3.16-16.89.37,2.69,1.53,15.39,3,13.7-.14-4.53-1.42-14.51-4.05-18.14a19.71,19.71,0,0,1,6.09,7.44c.11-.33.23-.66.35-1a55.74,55.74,0,0,0,2-7.37,81.89,81.89,0,0,1-.57,11.15A45.2,45.2,0,0,1,110,416c.79-2.26,1.57-4.89,2.74-8.1-1.18,3.36-.71,6.65,0,10.1,5,.69,4.33-10.87,3.44-14.49,4.09,1.42,4.72,10.88,4.8,15.82,0,0,4-3,6.62-15.88,2.26,4.25-.87,15.77,2.26,18.31.88.72,1.12-14.32,7.39-17.7-2.45,1.32-2.81,8.51-1.75,13.65A12.49,12.49,0,0,0,139.19,424.3Z" style="fill:#fff;opacity:0.7000000000000001"></path><path d="M170.25,423.88a30.34,30.34,0,0,0,8.81-17c-2.43,4.65-4.33,5.64-8.18,9.52-.32-3.53,5.17-14.27-.9-34.54a59.64,59.64,0,0,1-1.32,26.59c.16-12.07-3.69-18.72-7.69-24.4,8.33,21.92,4.19,28.68,2.31,39.79C165.16,424,170.25,423.88,170.25,423.88Z" style="fill:#407BFF"></path><path d="M170.25,423.88a30.34,30.34,0,0,0,8.81-17c-2.43,4.65-4.33,5.64-8.18,9.52-.32-3.53,5.17-14.27-.9-34.54a59.64,59.64,0,0,1-1.32,26.59c.16-12.07-3.69-18.72-7.69-24.4,8.33,21.92,4.19,28.68,2.31,39.79C165.16,424,170.25,423.88,170.25,423.88Z" style="fill:#fff;opacity:0.7000000000000001"></path><path d="M192,423.82c2.28-4.18,2.28-11.36,2.28-23.94,1,3.66,1.94,12.16,2.35,15.94,1.45-14.23,1.71-19.25,3.16-33.48,1.95,12.67,2.36,19,1.18,31.74,2.84-16,5.25-14.71,9.2-20.91a45.28,45.28,0,0,0-4.89,23c2.57-4.12,4.69-7.36,7.26-11.48-2,6.36-3.44,12.82-5.44,19.18Z" style="fill:#407BFF"></path><path d="M192,423.82c2.28-4.18,2.28-11.36,2.28-23.94,1,3.66,1.94,12.16,2.35,15.94,1.45-14.23,1.71-19.25,3.16-33.48,1.95,12.67,2.36,19,1.18,31.74,2.84-16,5.25-14.71,9.2-20.91a45.28,45.28,0,0,0-4.89,23c2.57-4.12,4.69-7.36,7.26-11.48-2,6.36-3.44,12.82-5.44,19.18Z" style="fill:#fff;opacity:0.7000000000000001"></path><path d="M241.26,407.67c-1.72,5.46-.66,16.73-.66,16.73-3.8,0-32-.35-35.18-.35,0,0,7.85-4,9.83-16.41a58.35,58.35,0,0,1,1.85,9.62c1.26-12.23,5.54-15,4.52-4,2.42-5.11,4.7-10.33,7.12-15.45A64.76,64.76,0,0,1,226.57,411c-1,3.77-2,6.35-2,6.5.88-1.42,1.71-2.72,2.52-4,.21,1.23.38,1.67.52,2.92a50.88,50.88,0,0,1,.89-5.15c1.94-10.25,4.64-9,3.62,1.93,2.42-5.11,4.7-10.33,7.12-15.45A72.83,72.83,0,0,1,235,417.53C237.24,414,239.05,411.2,241.26,407.67Z" style="fill:#407BFF"></path><path d="M241.26,407.67c-1.72,5.46-.66,16.73-.66,16.73-3.8,0-32-.35-35.18-.35,0,0,7.85-4,9.83-16.41a58.35,58.35,0,0,1,1.85,9.62c1.26-12.23,5.54-15,4.52-4,2.42-5.11,4.7-10.33,7.12-15.45A64.76,64.76,0,0,1,226.57,411c-1,3.77-2,6.35-2,6.5.88-1.42,1.71-2.72,2.52-4,.21,1.23.38,1.67.52,2.92a50.88,50.88,0,0,1,.89-5.15c1.94-10.25,4.64-9,3.62,1.93,2.42-5.11,4.7-10.33,7.12-15.45A72.83,72.83,0,0,1,235,417.53C237.24,414,239.05,411.2,241.26,407.67Z" style="fill:#fff;opacity:0.7000000000000001"></path><path d="M343.9,424q1.25-8.36,2.48-16.71a59.38,59.38,0,0,1,1.67,9.65c1.49-12.2,6.91-24.32,8.4-36.52,1.46,10.92-2.56,20.85-3.79,31.8,2.52-5.07,4.88-9.45,7.4-14.52a72.54,72.54,0,0,1-4.58,19.66c2.28-3.5,4.15-6.25,6.43-9.75l-5.48,16.29C352.63,423.85,347.7,424.1,343.9,424Z" style="fill:#407BFF"></path><path d="M343.9,424q1.25-8.36,2.48-16.71a59.38,59.38,0,0,1,1.67,9.65c1.49-12.2,6.91-24.32,8.4-36.52,1.46,10.92-2.56,20.85-3.79,31.8,2.52-5.07,4.88-9.45,7.4-14.52a72.54,72.54,0,0,1-4.58,19.66c2.28-3.5,4.15-6.25,6.43-9.75l-5.48,16.29C352.63,423.85,347.7,424.1,343.9,424Z" style="fill:#fff;opacity:0.7000000000000001"></path><path d="M342.85,423.77a27.69,27.69,0,0,0,6.49-14.61c-1.79,4-3.19,4.85-6,8.18-.24-3,3.8-12.26-.66-29.68a59.75,59.75,0,0,1-1,22.84,48.26,48.26,0,0,0-6.07-15.87,69.64,69.64,0,0,1,2.11,29.1C339.11,423.89,342.85,423.77,342.85,423.77Z" style="fill:#407BFF"></path><path d="M338.94,423.9c.08-4.61,1.58-11.44-1-14.88.07,2.57-.54,8-4.74,11.06,1.93-6.28,1.4-15.47,1.13-22-4.33,23.59-11.48,25.2-14,25.92C325.2,424.06,338.94,423.9,338.94,423.9Z" style="fill:#407BFF"></path><g style="opacity:0.7000000000000001"><path d="M342.85,423.77a27.69,27.69,0,0,0,6.49-14.61c-1.79,4-3.19,4.85-6,8.18-.24-3,3.8-12.26-.66-29.68a59.75,59.75,0,0,1-1,22.84,48.26,48.26,0,0,0-6.07-15.87,69.64,69.64,0,0,1,2.11,29.1C339.11,423.89,342.85,423.77,342.85,423.77Z" style="fill:#fff"></path><path d="M338.94,423.9c.08-4.61,1.58-11.44-1-14.88.07,2.57-.54,8-4.74,11.06,1.93-6.28,1.4-15.47,1.13-22-4.33,23.59-11.48,25.2-14,25.92C325.2,424.06,338.94,423.9,338.94,423.9Z" style="fill:#fff"></path></g><path d="M371.61,423.88c.07-4.62-1.34-8.16-1.27-12.77-1.68,8.3-5.65,9.19-5.65,9.19,3.06-7.84,3.19-15.69,3-22.26-1.53,8.09-3.2,16.53-7.61,22.82-1.05,1.51-2.61,3.54-4.15,2.93C355.9,423.79,367.66,423.78,371.61,423.88Z" style="fill:#407BFF"></path><path d="M371.61,423.88c.07-4.62-1.34-8.16-1.27-12.77-1.68,8.3-5.65,9.19-5.65,9.19,3.06-7.84,3.19-15.69,3-22.26-1.53,8.09-3.2,16.53-7.61,22.82-1.05,1.51-2.61,3.54-4.15,2.93C355.9,423.79,367.66,423.78,371.61,423.88Z" style="fill:#fff;opacity:0.7000000000000001"></path><path d="M289.13,423.88c.07-4.62-1.35-8.16-1.28-12.77-1.67,8.3-5.64,9.19-5.64,9.19,3.05-7.84,3.19-15.69,3-22.26-1.53,8.09-3.19,16.53-7.6,22.82-1.06,1.51-2.61,3.54-4.16,2.93C273.41,423.79,285.18,423.78,289.13,423.88Z" style="fill:#407BFF"></path><path d="M289.13,423.88c.07-4.62-1.35-8.16-1.28-12.77-1.67,8.3-5.64,9.19-5.64,9.19,3.05-7.84,3.19-15.69,3-22.26-1.53,8.09-3.19,16.53-7.6,22.82-1.06,1.51-2.61,3.54-4.16,2.93C273.41,423.79,285.18,423.78,289.13,423.88Z" style="fill:#fff;opacity:0.7000000000000001"></path></g><g id="Device"><rect x="223.34" y="196.35" width="51.72" height="29.44" transform="translate(124.65 -90.82) rotate(27.32)" style="fill:#407BFF"></rect><rect x="266.58" y="219.82" width="51.72" height="27" transform="translate(139.67 -108.18) rotate(27.32)" style="fill:#407BFF"></rect><polygon points="268.65 236.6 265.55 235.87 278.88 210.06 281.27 212.16 268.65 236.6" style="fill:#263238"></polygon><polygon points="268.65 236.6 265.55 235.87 278.88 210.06 281.27 212.16 268.65 236.6" style="opacity:0.2"></polygon><rect x="269.25" y="207.52" width="3.14" height="29.44" transform="translate(132.19 -99.5) rotate(27.32)" style="fill:#263238"></rect><polygon points="319.46 256.85 312.22 258.44 324.37 234.9 327.27 241.73 319.46 256.85" style="fill:#263238"></polygon><rect x="334.66" y="250.49" width="9.43" height="12.85" transform="translate(155.74 -127.09) rotate(27.31)" style="fill:#263238"></rect><rect x="334.66" y="250.49" width="9.43" height="12.85" transform="translate(155.74 -127.09) rotate(27.31)" style="opacity:0.2"></rect><rect x="318.61" y="242.82" width="19.92" height="17.4" transform="translate(152.06 -122.73) rotate(27.32)" style="fill:#263238"></rect><polygon points="319.46 256.85 312.22 258.44 324.37 234.9 327.27 241.73 319.46 256.85" style="opacity:0.2"></polygon><rect x="315.24" y="232.41" width="3.14" height="27" transform="translate(148.17 -117.96) rotate(27.32)" style="fill:#263238"></rect><rect x="224.65" y="184.49" width="3.14" height="29.44" transform="translate(116.63 -81.59) rotate(27.31)" style="fill:#263238"></rect><path d="M329.47,263.7a4.8,4.8,0,1,1-2.06-6.47A4.8,4.8,0,0,1,329.47,263.7Z" style="fill:#263238"></path><path d="M329.47,263.7a4.8,4.8,0,1,1-2.06-6.47A4.8,4.8,0,0,1,329.47,263.7Z" style="fill:#407BFF"></path><rect x="353.01" y="240.72" width="9.51" height="17.9" transform="translate(154.46 -136.33) rotate(27.32)" style="fill:#263238"></rect><rect x="353.01" y="240.72" width="9.51" height="17.9" transform="translate(154.46 -136.33) rotate(27.32)" style="opacity:0.2"></rect><polygon points="347.49 251.5 339.5 266.96 343.3 268.92 360.18 262.9 362.23 259.11 347.49 251.5" style="fill:#263238"></polygon><polygon points="365.83 245.47 356.52 240.66 356.52 236.49 369.24 243.06 365.83 245.47" style="fill:#407BFF"></polygon><rect x="216.49" y="179.06" width="8.92" height="34.4" transform="translate(114.7 -79.51) rotate(27.32)" style="fill:#407BFF"></rect><g style="opacity:0.4"><path d="M238.73,191.69l-3.41-1.75-1.5,2.91,3.46,1.77A25.73,25.73,0,0,0,238.73,191.69Z" style="fill:#fff"></path><path d="M240.79,192.83a28.64,28.64,0,0,1-1.45,2.94l32.84,16.75,1.51-2.9Z" style="fill:#fff"></path></g><g style="opacity:0.4"><polygon points="319.56 234.66 318.05 237.56 280.02 217.8 281.52 214.89 319.56 234.66" style="fill:#fff"></polygon></g><g style="opacity:0.4"><polygon points="231.6 183.66 230.09 186.56 223.9 183.32 225.4 180.41 231.6 183.66" style="fill:#fff"></polygon></g><rect x="301.97" y="215.22" width="9.72" height="3.61" transform="translate(133.8 -116.6) rotate(27.31)" style="fill:#263238"></rect><rect x="286.67" y="203.21" width="45.49" height="8.06" transform="translate(129.6 -118.88) rotate(27.32)" style="fill:#407BFF"></rect><g style="opacity:0.4"><path d="M294.44,195.83l-2.71-1.39-.69,1.41,2.81,1.44A4.67,4.67,0,0,0,294.44,195.83Z" style="fill:#fff"></path><path d="M295.8,196.57a6.37,6.37,0,0,1-.61,1.45l34.21,17.5.61-1.44Z" style="fill:#fff"></path></g><rect x="302.8" y="200.49" width="2.68" height="22.28" transform="translate(131.03 -115.97) rotate(27.32)" style="fill:#263238"></rect><rect x="302.8" y="200.49" width="2.68" height="22.28" transform="translate(131.03 -115.97) rotate(27.32)" style="opacity:0.2"></rect><polygon points="285.92 198.7 287.36 200.38 291.05 193.22 288.85 193.03 285.92 198.7" style="fill:#263238"></polygon><rect x="320.28" y="211.71" width="14.23" height="9.73" transform="translate(135.89 -126.09) rotate(27.32)" style="fill:#263238"></rect><path d="M289.43,197.42a28.48,28.48,0,0,1-1.45,2.93L327.3,221l1.51-2.9Z" style="opacity:0.30000000000000004;isolation:isolate"></path><path d="M211.76,206.05a28.48,28.48,0,0,1-1.45,2.93l6.39,3.39,1.51-2.9Z" style="opacity:0.30000000000000004;isolation:isolate"></path><path d="M224.62,209.59a28.64,28.64,0,0,1-1.45,2.94l39.32,20.64,1.51-2.9Z" style="opacity:0.30000000000000004;isolation:isolate"></path><path d="M272.87,233.67a28.64,28.64,0,0,1-1.45,2.94l36.77,19.15,1.51-2.9Z" style="opacity:0.30000000000000004;isolation:isolate"></path><rect x="276.24" y="245.08" width="24.34" height="8.54" transform="translate(146.58 -104.54) rotate(27.32)" style="fill:#263238"></rect><rect x="279.97" y="263.34" width="9.74" height="9.74" style="fill:#263238"></rect><rect x="279.97" y="263.34" width="9.74" height="9.74" style="opacity:0.2"></rect><rect x="284.85" y="247.85" width="4.86" height="17.83" style="fill:#263238"></rect><rect x="270.23" y="261.02" width="19.48" height="4.66" style="fill:#263238"></rect><rect x="270.23" y="271.46" width="24.34" height="6.95" style="fill:#263238"></rect><polygon points="284.25 423.65 280.78 423.65 278.69 278.41 286.35 278.41 284.25 423.65" style="fill:#263238"></polygon><polygon points="284.25 423.65 280.78 423.65 278.69 278.41 286.35 278.41 284.25 423.65" style="fill:#fff;opacity:0.1"></polygon><polygon points="245.69 420.52 242.28 419.87 267.38 276.8 274.9 278.23 245.69 420.52" style="fill:#263238"></polygon><polygon points="245.69 420.52 242.28 419.87 267.38 276.8 274.9 278.23 245.69 420.52" style="fill:#fff;opacity:0.1"></polygon><rect x="243.45" y="398.2" width="7.7" height="7.7" transform="translate(80.04 -39.34) rotate(10.84)" style="fill:#263238"></rect><rect x="241.88" y="406.38" width="7.7" height="7.7" transform="matrix(0.98, 0.19, -0.19, 0.98, 81.55, -38.9)" style="fill:#263238"></rect><polygon points="247.43 415.55 242.4 414.59 241.32 423.65 245.22 423.65 247.43 415.55" style="fill:#263238"></polygon><polygon points="318.93 420.52 322.34 419.87 297.23 276.8 289.71 278.23 318.93 420.52" style="fill:#263238"></polygon><polygon points="318.93 420.52 322.34 419.87 297.23 276.8 289.71 278.23 318.93 420.52" style="fill:#fff;opacity:0.1"></polygon><rect x="313.46" y="398.2" width="7.7" height="7.7" transform="translate(704.58 737.23) rotate(169.16)" style="fill:#263238"></rect><rect x="315.03" y="406.38" width="7.7" height="7.7" transform="translate(709.23 753.16) rotate(169.16)" style="fill:#263238"></rect><polygon points="317.19 415.55 322.21 414.59 323.29 423.65 319.39 423.65 317.19 415.55" style="fill:#263238"></polygon><rect x="248.38" y="393.52" width="34.03" height="4.01" transform="translate(-29.67 21.61) rotate(-4.42)" style="fill:#263238"></rect><rect x="282.62" y="393.52" width="34.03" height="4.01" transform="translate(567.93 812.95) rotate(-175.58)" style="fill:#263238"></rect></g><g id="Character"><path d="M365.82,252.93c1-1,2.41-2.12,3.38-3.15a39.78,39.78,0,0,0,.88-5.8,2.43,2.43,0,0,0-1.71-1.51c-.26-.08-2.27,1.73-2.54,1.8-1-.85-2.33,3.06-2.31,3-.4,1.4-1.29,2.81-1,4.24C362.71,252.71,365,253.81,365.82,252.93Z" style="fill:#b55b52"></path><path d="M363.05,252.64l3.42-1.19,4.72,9.07a6.83,6.83,0,0,0,7.6,3.56c3.91-1,9.34-4,14.72-12.67,0,0,6,2.51,6.22,5.47,0,0-18.41,21.47-29.65,11.1C366.36,264.55,363.05,252.64,363.05,252.64Z" style="fill:#b55b52"></path><g id="freepik--Character--inject-282"><path d="M398.83,294.92s14.16,18.13,6.42,35.81c-4.23,9.68-8.33,37.92-8.33,37.92A47.44,47.44,0,0,1,410,382.2c8.39,13.55,12.49,17.12,12.49,17.12l-6,4.57s-24.74-18.78-31-27.94-5.11-17.28,3-52.27l-18.94,41.17c8.15,11,7.23,39.17,7.23,39.17l-9.41,1.5s-10-28.23-12.61-35.83-4.82-9.59,3-34.54c3-9.57,12.26-39.24,12.26-39.24Z" style="fill:#407BFF"></path><path d="M398.83,294.92s14.16,18.13,6.42,35.81c-4.23,9.68-8.33,37.92-8.33,37.92A47.44,47.44,0,0,1,410,382.2c8.39,13.55,12.49,17.12,12.49,17.12l-6,4.57s-24.74-18.78-31-27.94-5.11-17.28,3-52.27l-18.94,41.17c8.15,11,7.23,39.17,7.23,39.17l-9.41,1.5s-10-28.23-12.61-35.83-4.82-9.59,3-34.54c3-9.57,12.26-39.24,12.26-39.24Z" style="opacity:0.6000000000000001"></path><path d="M388.56,323.68s6.37-2.79,7.14-9.21c0,0,0,9.59-6.14,15.21-3.82,3.5-3.33,4-3.33,4Z" style="opacity:0.2;isolation:isolate"></path><polygon points="416.23 402.75 424.36 411.09 429.51 410.62 421.38 399.11 416.23 402.75" style="fill:#b55b52"></polygon><polygon points="368.44 405.52 371.97 418.02 376.96 417.82 376.18 405.1 368.44 405.52" style="fill:#b55b52"></polygon><path d="M432.06,412a1.18,1.18,0,0,0-.09-1.6c-.5-.42-2-1.45-3.06-2.17-.67-.45-1.53-1.16-2.2-.72l-3,2.67c-.78.5-.85,1.23-.81,2.15a14.83,14.83,0,0,1-2.32,7.87c-1.09,1.72-1.72,3-1,3.63a1.37,1.37,0,0,0,.73.28,3.14,3.14,0,0,0,2.76-1.19Z" style="fill:#263238"></path><path d="M376.67,415.23a1.69,1.69,0,0,1,1.69,1.67,58.08,58.08,0,0,1-.12,7c-.29.68-20.36-.11-20.36-.11a2.33,2.33,0,0,1-1-2c.15-1.24,6.93-1.9,9.35-3.16a23.79,23.79,0,0,0,4.27-3,1.67,1.67,0,0,1,1.11-.42Z" style="fill:#263238"></path><polygon points="412.99 402.85 421.78 396.3 423.97 399.16 415.93 405.39 412.99 402.85" style="fill:#407BFF"></polygon><polygon points="412.99 402.85 421.78 396.3 423.97 399.16 415.93 405.39 412.99 402.85" style="fill:#fff;opacity:0.4"></polygon><path d="M365.8,404.63c.21-.15,12.38-2.28,12.38-2.28l.28,4.06L367,409.06Z" style="fill:#407BFF"></path><path d="M365.8,404.63c.21-.15,12.38-2.28,12.38-2.28l.28,4.06L367,409.06Z" style="fill:#fff;opacity:0.4"></path><path d="M382.82,230c.78,4.56,3.56,15.28,7.64,17,0,0,.46,4.76-7.45,7.77-8.7,3.3-6.44-5.34-6.44-5.34,4.32-2.95,2.85-6.42.76-9.41Z" style="fill:#b55b52"></path><path d="M392.24,246.44h0a1.75,1.75,0,0,0-1.65-1.78c-3.48-.16-11.39-.4-15.24.6-2.86.75-3.43,2.53-3.39,3.93a1.71,1.71,0,0,0,1.77,1.66l.27,0,16.81-2.75A1.74,1.74,0,0,0,392.24,246.44Z" style="fill:#407BFF"></path><path d="M392.24,246.44h0a1.75,1.75,0,0,0-1.65-1.78c-3.48-.16-11.39-.4-15.24.6-2.86.75-3.43,2.53-3.39,3.93a1.71,1.71,0,0,0,1.77,1.66l.27,0,16.81-2.75A1.74,1.74,0,0,0,392.24,246.44Z" style="fill:#fff;opacity:0.4"></path><path d="M401.59,254.64c-3.9,21.13-3.6,28.66-2.74,40.24l-28.76,1s-3.43-17.2-3.78-23.46c-.21-3.62-.38-6.74-.52-9.43-.62-11.24-.73-14.83-.73-14.83a83.17,83.17,0,0,1,24.49-1.33q3.26.09,6.5.39A6.27,6.27,0,0,1,401.59,254.64Z" style="fill:#407BFF"></path><path d="M333.92,268.4c-.55-1.3-1-3.07-1.52-4.36a30.18,30.18,0,0,0-6.23-3.59,26.37,26.37,0,0,0-2.74,3.18c-.17.22-.05.66-.09.93a18.2,18.2,0,0,0,4.06,3.16c1.12.92,2.47,2.83,3.88,3.16C332.47,271.16,334.39,269.52,333.92,268.4Z" style="fill:#b55b52"></path><path d="M331.28,270.88l2.64-2.48,15.82,4.5s7.52-10.29,8.87-15.53c0,0,6.5-.14,7.91,2.47,0,0-8.65,18-13.24,20.83S331.28,270.88,331.28,270.88Z" style="fill:#b55b52"></path><path d="M332.83,270.46l-.89,1.43,2.05,1.27.58-1.52S333.72,271.69,332.83,270.46Z" style="fill:#407BFF"></path><path d="M336.31,269.9a1.74,1.74,0,1,1-1.74-1.73A1.74,1.74,0,0,1,336.31,269.9Z" style="fill:#263238"></path><path d="M334.57,272.14a2.24,2.24,0,1,1,2.24-2.24A2.24,2.24,0,0,1,334.57,272.14Zm0-3.47a1.24,1.24,0,1,0,1.24,1.23A1.24,1.24,0,0,0,334.57,268.67Z" style="fill:#407BFF"></path><path d="M366.52,272.53a.9.9,0,0,1-.21-.08c-.21-3.62-.38-6.74-.52-9.43,1.8-4.34,4-8.94,4.57-6.71C371.13,259.49,366.52,272.53,366.52,272.53Z" style="opacity:0.2;isolation:isolate"></path><path d="M353.79,263.65,364.63,270s7.87-11,6.18-17.09c-.09-4.14-3.82-5.49-5.74-4.75C358.63,249.58,353.79,263.65,353.79,263.65Z" style="fill:#407BFF"></path></g><path d="M363.72,229.63a2.38,2.38,0,0,1,2.06-.79h0l.1,0a.31.31,0,0,0,.32-.3.31.31,0,0,0-.3-.32,3,3,0,0,0-2.61.92.32.32,0,0,0-.08.2.32.32,0,0,0,.51.27Z" style="fill:#263238"></path><path d="M366.2,231.78a19.73,19.73,0,0,1,.32,4.2,1.58,1.58,0,0,0,1.63-.24Z" style="fill:#df5753"></path><path d="M365.08,229.71c-.37.18-.44.78-.17,1.34s.8.86,1.16.68.44-.77.16-1.33S365.44,229.53,365.08,229.71Z" style="fill:#263238"></path><path d="M383.8,218.87c2.94,7,4.33,10,2.61,15.15-2.6,7.82-11.87,9.9-16.83,3.92-4.49-5.42-8.76-14.28-3.39-20.29,3.79-4.3,10.57-6.42,14.87-2.63A10.38,10.38,0,0,1,383.8,218.87Z" style="fill:#b55b52"></path><path d="M363.05,220.43a7.62,7.62,0,0,0,2.56,6.08c1.52,1.34,3.76,2.32,4,4.33.1.73-.08,1.55.36,2.14.62.84,1.92.56,2.9.2.31.1.4.5.51.81.44,1.31-.49,2.64-.95,3.94a10.46,10.46,0,0,0,.6,6.53c.81-1.75,6.62-4.27,12-5.9,3.56-1.1,5.43-7,5.43-7A16.08,16.08,0,0,0,381.39,212C369,208.86,363.17,218.15,363.05,220.43Z" style="fill:#263238"></path><path d="M372.3,229.14a7.48,7.48,0,0,1,.72,4.19c-.23,1.85-1.59,1.87-2.61.5-.89-1.21-1.86-3.64-1.12-5.14S371.51,227.57,372.3,229.14Z" style="fill:#b55b52"></path><path d="M359.12,223.43a2.81,2.81,0,0,0,2.23,3.08,4.65,4.65,0,0,0,6.33,2.82c-1.29-.17-1.87-1.8-1.6-3.07.49-2.34,3.34-5.52,0-6.93C363.51,218.25,359.39,220.73,359.12,223.43Z" style="fill:#263238"></path></g><g id="Moon"><path d="M350.23,124.42a30.91,30.91,0,1,0-30.91,30.91A30.91,30.91,0,0,0,350.23,124.42Zm-4.44,2.49c1.34.45,1.91,2.36,1.27,4.28s-2,3-3.31,2.74c.55,1.42-.17,3.72-1.14,5.15-1.81,2.65-3.78,3.69-5.17,3.36-2.31-.56-1.74-3.48-.32-6.08,1.1-2,3-4.11,5.16-3.63a4.36,4.36,0,0,1-.06-3.14C342.86,127.67,344.45,126.47,345.79,126.91Zm-8.27-11a4.3,4.3,0,1,1-5.93-1.35A4.3,4.3,0,0,1,337.52,115.92ZM293,125.73a3.3,3.3,0,1,1,3.29,3.3A3.29,3.29,0,0,1,293,125.73Zm10.84.38a3.79,3.79,0,0,1,1.41-2.94,14,14,0,0,1-5.23-9.63,2.8,2.8,0,0,1-1,.16,2.86,2.86,0,1,1,0-5.71,2.82,2.82,0,0,1,1.44.39,14,14,0,0,1,19.75-8.6,5.61,5.61,0,1,1,6.94,8.11A14,14,0,0,1,311.45,126v.16a3.79,3.79,0,1,1-7.57,0Zm23.24,9a2.86,2.86,0,0,1,2-2.48,4.3,4.3,0,1,1,3.13,1.15,2.78,2.78,0,0,1,.47,1.82,2.83,2.83,0,0,1-5.64-.49Zm-25.52,5a2.15,2.15,0,1,1,2.14,2.14A2.15,2.15,0,0,1,301.6,140.15Zm23.74,3.25a2.83,2.83,0,1,1,2.57,3.07A2.83,2.83,0,0,1,325.34,143.4Z" style="fill:#407BFF"></path><path d="M350.23,124.42a30.91,30.91,0,1,1-30.91-30.91A30.77,30.77,0,0,1,350.23,124.42Z" style="fill:#fff;opacity:0.5"></path><path d="M343.63,143.51a30.92,30.92,0,0,1-50.92-3.35,34.34,34.34,0,0,1-2-4.06,22.6,22.6,0,0,1-.94-6.54h0a8.46,8.46,0,0,0,8.54-.48l.76-.5a8.3,8.3,0,0,0,2.5-2.21,2.79,2.79,0,0,0,.07-3.14c.74-.6,1.82-1.61,2.56-2.21a8.57,8.57,0,0,0,7.34,4.86,12.78,12.78,0,0,0,8.55-3,28.23,28.23,0,0,0,6.54-7.08l3.08,1c0,1.77.52,3.73,3.17,5.59a7,7,0,0,1,2.88,6.62l0,.1a6.52,6.52,0,0,0,2.79,6.11,9,9,0,0,0,1.67.95c.16.48,1,1.19,1.13,1.66-1,1.08-1,1.6-.3,2.87A9.59,9.59,0,0,0,343.63,143.51Z" style="fill:#fff;opacity:0.4"></path><path d="M296.33,129a3.3,3.3,0,1,1,3.3-3.3A3.29,3.29,0,0,1,296.33,129Z" style="fill:#407BFF"></path><g style="opacity:0.2"><path d="M296.33,129a3.3,3.3,0,1,1,3.3-3.3A3.29,3.29,0,0,1,296.33,129Z" style="fill:#fff"></path></g><path d="M330.24,120.49a4.3,4.3,0,1,1,5.92,1.36A4.28,4.28,0,0,1,330.24,120.49Z" style="fill:#407BFF"></path><g style="opacity:0.2"><path d="M330.24,120.49a4.3,4.3,0,1,1,5.92,1.36A4.28,4.28,0,0,1,330.24,120.49Z" style="fill:#fff"></path></g><path d="M329.7,138.2a2.82,2.82,0,0,1-2.58-3.06,2.86,2.86,0,0,1,2-2.48,4.3,4.3,0,1,1,3.13,1.15,2.78,2.78,0,0,1,.47,1.82A2.82,2.82,0,0,1,329.7,138.2Z" style="fill:#407BFF"></path><g style="opacity:0.2"><path d="M329.7,138.2a2.82,2.82,0,0,1-2.58-3.06,2.86,2.86,0,0,1,2-2.48,4.3,4.3,0,1,1,3.13,1.15,2.78,2.78,0,0,1,.47,1.82A2.82,2.82,0,0,1,329.7,138.2Z" style="fill:#fff"></path></g><path d="M327.91,146.47a2.84,2.84,0,1,1,3.07-2.58A2.83,2.83,0,0,1,327.91,146.47Z" style="fill:#407BFF"></path><g style="opacity:0.2"><path d="M327.91,146.47a2.84,2.84,0,1,1,3.07-2.58A2.83,2.83,0,0,1,327.91,146.47Z" style="fill:#fff"></path></g><path d="M308.18,141.06a.36.36,0,0,1,0-.1.3.3,0,0,1,.39-.19c5.06,1.72,15.2.37,15.3.36a.3.3,0,0,1,.35.26.31.31,0,0,1-.27.35c-.42.06-10.39,1.38-15.58-.38A.32.32,0,0,1,308.18,141.06Z" style="fill:#fff"></path><path d="M305.38,144.55a.31.31,0,0,1,.55-.19,14.44,14.44,0,0,0,7.43,4.89.31.31,0,0,1,.21.39.31.31,0,0,1-.39.2,14.93,14.93,0,0,1-7.74-5.1A.31.31,0,0,1,305.38,144.55Z" style="fill:#fff"></path><path d="M301,131.28a.32.32,0,0,1,.3-.31.31.31,0,0,1,.32.3,18,18,0,0,0,.74,4.43.31.31,0,0,1-.21.39.33.33,0,0,1-.39-.21,18.65,18.65,0,0,1-.76-4.58Z" style="fill:#fff"></path><path d="M295.64,142.41a.3.3,0,0,1,.23-.3l3.88-1.06a.31.31,0,0,1,.38.22.32.32,0,0,1-.22.38L296,142.71a.31.31,0,0,1-.38-.22A.25.25,0,0,1,295.64,142.41Z" style="fill:#fff"></path><path d="M301,149v0a12,12,0,0,1,1.21-4.56.31.31,0,0,1,.42-.13.3.3,0,0,1,.13.42,11.43,11.43,0,0,0-1.14,4.32.3.3,0,0,1-.33.28A.32.32,0,0,1,301,149Z" style="fill:#fff"></path><path d="M306.9,137.22a.3.3,0,0,1,.18-.28c2.62-1.21,11.53-5.73,11.62-5.78a.31.31,0,1,1,.28.56c-.09,0-9,4.56-11.64,5.79a.31.31,0,0,1-.41-.15A.35.35,0,0,1,306.9,137.22Z" style="fill:#fff"></path><path d="M292.81,131.35a.32.32,0,0,1,.16-.27.31.31,0,0,1,.42.12,18.8,18.8,0,0,0,6.84,6.76.31.31,0,0,1,.12.42.32.32,0,0,1-.43.12,19.45,19.45,0,0,1-7.07-7A.28.28,0,0,1,292.81,131.35Z" style="fill:#fff"></path><path d="M311.45,126.11V126a14,14,0,0,0,15.78-18.06,5.61,5.61,0,1,0-6.94-8.11,14,14,0,0,0-19.75,8.6,2.82,2.82,0,0,0-1.44-.39,2.86,2.86,0,1,0,0,5.71,2.8,2.8,0,0,0,1-.16,14,14,0,0,0,5.23,9.63,3.78,3.78,0,1,0,6.16,2.94Z" style="fill:#407BFF"></path><path d="M311.45,126.11V126a14,14,0,0,0,15.78-18.06,5.61,5.61,0,1,0-6.94-8.11,14,14,0,0,0-19.75,8.6,2.82,2.82,0,0,0-1.44-.39,2.86,2.86,0,1,0,0,5.71,2.8,2.8,0,0,0,1-.16,14,14,0,0,0,5.23,9.63,3.78,3.78,0,1,0,6.16,2.94Z" style="fill:#fff;opacity:0.2"></path><path d="M337.44,142.44c-2.31-.56-1.74-3.48-.32-6.08,1.1-2,3-4.11,5.16-3.63a4.36,4.36,0,0,1-.06-3.14c.64-1.92,2.23-3.12,3.57-2.68s1.91,2.36,1.27,4.28-2,3-3.31,2.74c.55,1.42-.17,3.72-1.14,5.15C340.8,141.73,338.83,142.77,337.44,142.44Z" style="fill:#407BFF"></path><g style="opacity:0.2"><path d="M337.44,142.44c-2.31-.56-1.74-3.48-.32-6.08,1.1-2,3-4.11,5.16-3.63a4.36,4.36,0,0,1-.06-3.14c.64-1.92,2.23-3.12,3.57-2.68s1.91,2.36,1.27,4.28-2,3-3.31,2.74c.55,1.42-.17,3.72-1.14,5.15C340.8,141.73,338.83,142.77,337.44,142.44Z" style="fill:#fff"></path></g><path d="M336.87,105.44a.51.51,0,0,1-.48-.36c-.59-2-4.3-5.58-8.37-7.26-4.73-1.95-12.93-1.46-14.82-.07a.5.5,0,1,1-.59-.81c2.32-1.69,11-2,15.79,0,4,1.66,8.21,5.36,9,7.91a.5.5,0,0,1-.34.62Z" style="fill:#407BFF"></path><g style="opacity:0.2"><path d="M336.87,105.44a.51.51,0,0,1-.48-.36c-.59-2-4.3-5.58-8.37-7.26-4.73-1.95-12.93-1.46-14.82-.07a.5.5,0,1,1-.59-.81c2.32-1.69,11-2,15.79,0,4,1.66,8.21,5.36,9,7.91a.5.5,0,0,1-.34.62Z" style="fill:#fff"></path></g><path d="M313.3,113.26a1.83,1.83,0,0,0,1.14.78,1.81,1.81,0,0,0,2.14-1.41,1.74,1.74,0,0,0-.26-1.35,1.8,1.8,0,0,0-3.27.62,1.64,1.64,0,0,0,0,.38A1.83,1.83,0,0,0,313.3,113.26Z" style="fill:#407BFF"></path><path d="M313.3,113.26a1.83,1.83,0,0,0,1.14.78,1.81,1.81,0,0,0,2.14-1.41,1.74,1.74,0,0,0-.26-1.35,1.8,1.8,0,0,0-3.27.62,1.64,1.64,0,0,0,0,.38A1.83,1.83,0,0,0,313.3,113.26Z" style="fill:#fff;opacity:0.4"></path></g><g id="Planet"><path d="M153.44,133a11.94,11.94,0,1,1-13.53-10.09A11.93,11.93,0,0,1,153.44,133Z" style="fill:#407BFF"></path><path d="M146.86,124.55a11.54,11.54,0,0,0-3.06-1,20.62,20.62,0,0,1-12.75,7.07,11.09,11.09,0,0,0-.75,3.3C136.69,133.33,143.33,130.11,146.86,124.55Z" style="opacity:0.2"></path><path d="M140,123.41a11.41,11.41,0,0,0-9,7.16,20.62,20.62,0,0,0,12.75-7.07A11.53,11.53,0,0,0,140,123.41Z" style="fill:#fff;opacity:0.5"></path><path d="M143.32,146a11.41,11.41,0,0,0,9.45-8.63,27.17,27.17,0,0,1-14.07,8.35A11.5,11.5,0,0,0,143.32,146Z" style="opacity:0.2"></path><path d="M151.38,128.7a11.42,11.42,0,0,0-2-2.45c-3.6,6.39-11.27,10.4-18.84,10.78a11.35,11.35,0,0,0,1.14,3.11C139.91,139.69,147.76,135.16,151.38,128.7Z" style="fill:#fff;opacity:0.1"></path><path d="M149.35,126.25a11.79,11.79,0,0,0-2.49-1.7c-3.53,5.56-10.17,8.78-16.56,9.32a11.5,11.5,0,0,0,.08,2.48c0,.23.09.45.13.68C138.08,136.65,145.75,132.64,149.35,126.25Z" style="fill:#fff;opacity:0.30000000000000004"></path><path d="M152.8,132.18c-3.67,5.72-10.74,10.15-18.78,11a11.64,11.64,0,0,0,4.68,2.55,27.17,27.17,0,0,0,14.07-8.35,11.5,11.5,0,0,0,.21-4.31C152.93,132.76,152.87,132.47,152.8,132.18Z" style="fill:#fff;opacity:0.4"></path><path d="M152.8,132.18a11.49,11.49,0,0,0-1.42-3.48c-3.62,6.46-11.47,11-19.73,11.44a11.38,11.38,0,0,0,2.37,3C142.06,142.33,149.13,137.9,152.8,132.18Z" style="opacity:0.5"></path><path d="M170.82,118.69c-1.89-3.36-12.45-1.11-25,4.94a3.32,3.32,0,0,1,.51.23,3.53,3.53,0,0,1,1.07.51c7-2.92,12.47-3.8,13.58-1.84s-2.36,6.12-8.31,10.5a78.23,78.23,0,0,1-7.83,5,74.27,74.27,0,0,1-10,4.75c-6.05,2.31-10.67,2.85-11.68,1.06s1.68-5.21,6.45-9a6.69,6.69,0,0,1,.24-2C119.43,140,113,147.17,114.82,150.33c1.89,3.34,12.33,1.16,24.79-4.8,2.37-1.13,4.81-2.41,7.28-3.81,1.92-1.08,3.77-2.19,5.53-3.31C164.82,130.52,172.8,122.17,170.82,118.69Z" style="fill:#407BFF"></path><path d="M170.82,118.69c-1.89-3.36-12.45-1.11-25,4.94a3.32,3.32,0,0,1,.51.23,3.53,3.53,0,0,1,1.07.51c7-2.92,12.47-3.8,13.58-1.84s-2.36,6.12-8.31,10.5a78.23,78.23,0,0,1-7.83,5,74.27,74.27,0,0,1-10,4.75c-6.05,2.31-10.67,2.85-11.68,1.06s1.68-5.21,6.45-9a6.69,6.69,0,0,1,.24-2C119.43,140,113,147.17,114.82,150.33c1.89,3.34,12.33,1.16,24.79-4.8,2.37-1.13,4.81-2.41,7.28-3.81,1.92-1.08,3.77-2.19,5.53-3.31C164.82,130.52,172.8,122.17,170.82,118.69Z" style="fill:#fff;opacity:0.5"></path><path d="M122.29,149.14a4.66,4.66,0,0,1-2.75-.69,2.81,2.81,0,0,1-1.27-2.36c0-4,7.74-10,11-12.32l.29.41c-2.53,1.8-10.82,8-10.84,11.91a2.32,2.32,0,0,0,1.06,2c1.48,1.07,4.49.45,6.29.08l.34-.07a58,58,0,0,0,13.14-4.77c9-4.28,18.9-9.73,24.38-17.65,1.42-2,1.83-3.75,1.17-4.8s-2.67-1.51-5.37-1A54.27,54.27,0,0,0,147,124.07l-.2-.46a54.23,54.23,0,0,1,12.94-4.31c2.94-.5,5,0,5.87,1.27.55.87.8,2.51-1.18,5.36-5.55,8-15.53,13.5-24.57,17.82a59.21,59.21,0,0,1-13.26,4.8l-.34.07A20.24,20.24,0,0,1,122.29,149.14Z" style="fill:#407BFF"></path></g><g id="Stars"><polygon points="144.06 168.5 147.4 170.33 144.06 172.16 142.23 175.5 140.4 172.16 137.06 170.33 140.4 168.5 142.23 165.16 144.06 168.5" style="fill:#407BFF"></polygon><polygon points="156.71 163.91 158.37 164.82 156.71 165.74 155.79 167.4 154.88 165.74 153.21 164.82 154.88 163.91 155.79 162.24 156.71 163.91" style="fill:#407BFF"></polygon><g style="opacity:0.8"><polygon points="144.06 168.5 147.4 170.33 144.06 172.16 142.23 175.5 140.4 172.16 137.06 170.33 140.4 168.5 142.23 165.16 144.06 168.5" style="fill:#fff"></polygon><polygon points="156.71 163.91 158.37 164.82 156.71 165.74 155.79 167.4 154.88 165.74 153.21 164.82 154.88 163.91 155.79 162.24 156.71 163.91" style="fill:#fff"></polygon></g><polygon points="92.34 163.69 94.42 164.82 92.34 165.96 91.21 168.03 90.07 165.96 88 164.82 90.07 163.69 91.21 161.61 92.34 163.69" style="fill:#407BFF"></polygon><g style="opacity:0.8"><polygon points="92.34 163.69 94.42 164.82 92.34 165.96 91.21 168.03 90.07 165.96 88 164.82 90.07 163.69 91.21 161.61 92.34 163.69" style="fill:#fff"></polygon></g><polygon points="108.69 121.77 110.77 122.9 108.69 124.04 107.56 126.11 106.42 124.04 104.35 122.9 106.42 121.77 107.56 119.69 108.69 121.77" style="fill:#407BFF"></polygon><g style="opacity:0.8"><polygon points="108.69 121.77 110.77 122.9 108.69 124.04 107.56 126.11 106.42 124.04 104.35 122.9 106.42 121.77 107.56 119.69 108.69 121.77" style="fill:#fff"></polygon></g><polygon points="183.2 138.09 185.27 139.23 183.2 140.36 182.06 142.44 180.93 140.36 178.85 139.23 180.93 138.09 182.06 136.02 183.2 138.09" style="fill:#407BFF"></polygon><g style="opacity:0.8"><polygon points="183.2 138.09 185.27 139.23 183.2 140.36 182.06 142.44 180.93 140.36 178.85 139.23 180.93 138.09 182.06 136.02 183.2 138.09" style="fill:#fff"></polygon></g></g></svg>